<?xml version="1.0" standalone="no"?>
<!DOCTYPE svg PUBLIC "-//W3C//DTD SVG 1.1//EN" "http://www.w3.org/Graphics/SVG/1.1/DTD/svg11.dtd" >
<svg xmlns="http://www.w3.org/2000/svg">
<metadata></metadata>
<defs>
<font id="justusitalicoldstyle" horiz-adv-x="611" >
<font-face units-per-em="1000" ascent="800" descent="-200" />
<missing-glyph horiz-adv-x="278" />
<glyph unicode="fi" horiz-adv-x="648" d="M173 465h-94l7 25h95q9 36 26.5 74.5t43.5 76.5t63.5 62t79.5 24q38 0 69.5 -22t31.5 -57q0 -29 -13.5 -46.5t-37.5 -17.5q-19 0 -32 11.5t-13 28.5q0 13 12 27.5t12 25.5t-9.5 18t-22.5 7q-41 0 -65.5 -46t-47.5 -166h102l-6 -25h-100q-11 -65 -31 -142t-54.5 -168.5 t-75.5 -164t-97 -121.5t-116 -49q-42 0 -66 24.5t-24 59.5q0 62 52 62q19 0 31.5 -12t12.5 -29q0 -8 -6.5 -26t-6.5 -25q0 -23 29 -23q68 0 105 83.5t97 331.5zM488 465h-89l5 25h75q57 0 112 6l-109 -392q-9 -32 -9 -42q0 -20 22 -20q35 0 118 120l20 -14q-15 -23 -37 -51 t-43.5 -52t-51 -40.5t-58.5 -16.5t-47.5 17.5t-18.5 42.5q0 18 16 77zM528 658q0 23 17 40t40 17t40 -17t17 -40t-17 -40t-40 -17t-40 17t-17 40z" />
<glyph unicode="fl" horiz-adv-x="648" d="M173 465h-94l7 25h95q9 36 26.5 74.5t43.5 76.5t63.5 62t79.5 24q38 0 69.5 -22t31.5 -57q0 -29 -13.5 -46.5t-37.5 -17.5q-19 0 -32 11.5t-13 28.5q0 13 12 27.5t12 25.5t-9.5 18t-22.5 7q-41 0 -65.5 -46t-47.5 -166h102l-6 -25h-100q-11 -65 -31 -142t-54.5 -168.5 t-75.5 -164t-97 -121.5t-116 -49q-42 0 -66 24.5t-24 59.5q0 62 52 62q19 0 31.5 -12t12.5 -29q0 -8 -6.5 -26t-6.5 -25q0 -23 29 -23q68 0 105 83.5t97 331.5zM481 690l5 25h46q60 0 122 6l-172 -617q-9 -32 -9 -42q0 -20 22 -20q37 0 109 128l21 -11q-87 -171 -182 -171 q-29 0 -47.5 17.5t-18.5 42.5q0 18 16 77l158 565h-70z" />
<glyph unicode="&#xd;" horiz-adv-x="333" />
<glyph unicode=" "  horiz-adv-x="278" />
<glyph unicode="&#x09;" horiz-adv-x="278" />
<glyph unicode="&#xa0;" horiz-adv-x="278" />
<glyph unicode="!" horiz-adv-x="296" d="M146 174h-23l79 387q18 95 73 95q53 0 53 -58q0 -30 -37 -110zM31 57q0 26 18.5 44.5t44.5 18.5t44.5 -18.5t18.5 -44.5t-18.5 -44.5t-44.5 -18.5t-44.5 18.5t-18.5 44.5z" />
<glyph unicode="&#x22;" horiz-adv-x="444" d="M333 470l-17 150q-5 38 -5 44q0 63 45 63t45 -63q0 -6 -5 -44l-17 -150q-3 -31 -23 -31t-23 31zM182 470l-17 150q-5 38 -5 44q0 63 45 63t45 -63q0 -6 -5 -44l-17 -150q-3 -31 -23 -31t-23 31z" />
<glyph unicode="#" horiz-adv-x="556" d="M313 0l29 207h-128l-29 -207h-62l29 207h-105l8 60h106l22 160h-105l8 60h106l29 207h62l-29 -207h128l29 207h62l-29 -207h105l-8 -60h-106l-22 -160h105l-8 -60h-106l-29 -207h-62zM351 267l22 160h-128l-22 -160h128z" />
<glyph unicode="$" horiz-adv-x="556" d="M319 295l-78 -282q78 0 141.5 35.5t63.5 108.5q0 45 -32 74.5t-95 63.5zM320 443l65 235q-13 3 -39 3q-51 0 -95.5 -35t-44.5 -84q0 -41 28.5 -66.5t85.5 -52.5zM172 -97l25 88q-108 16 -202 76l52 191l25 -4q-7 -29 -7 -66q0 -72 39 -115t100 -54l81 295 q-70 38 -107.5 78.5t-37.5 106.5q0 88 58 147.5t150 59.5q29 0 44 -2l18 66h39l-20 -72q60 -9 126 -49l-26 -164h-27q3 19 3 42q0 47 -22.5 83.5t-62.5 54.5l-66 -240q35 -17 58 -32t48.5 -39.5t38.5 -58.5t13 -77q0 -77 -40 -130.5t-101 -76.5t-136 -23l-24 -85h-39z" />
<glyph unicode="%" horiz-adv-x="1000" d="M121 520q0 77 56 131.5t129 54.5q69 0 107.5 -47t38.5 -103q0 -77 -56 -131.5t-129 -54.5q-69 0 -107.5 47t-38.5 103zM193 504q0 -109 75 -109q33 0 60 31.5t39.5 71.5t12.5 74q0 109 -75 109q-33 0 -60 -31.5t-39.5 -71.5t-12.5 -74zM571 138q0 77 56 131.5t129 54.5 q69 0 107.5 -47t38.5 -103q0 -77 -56 -131.5t-129 -54.5q-69 0 -107.5 47t-38.5 103zM643 122q0 -109 75 -109q33 0 60 31.5t39.5 71.5t12.5 74q0 109 -75 109q-33 0 -60 -31.5t-39.5 -71.5t-12.5 -74zM265 -21l445 736h48l-445 -736h-48z" />
<glyph unicode="&#x26;" horiz-adv-x="667" d="M264 315q0 47 3 94q-79 -26 -114.5 -79t-35.5 -138q0 -66 26.5 -108t79.5 -42q21 0 42 11.5t30 26.5q-31 114 -31 235zM516 606q0 50 -37 50q-35 0 -61 -36t-37 -77t-14 -79q57 16 103 54t46 88zM569 151l26 -3q-85 -154 -188 -154q-30 0 -56.5 17.5t-41.5 44.5 q-66 -62 -134 -62t-111 46.5t-43 122.5q0 52 22 97.5t60 79.5t79.5 58t88.5 42q8 53 35.5 107t74.5 94t100 40q89 0 89 -79q0 -29 -14 -53.5t-36 -40.5t-50 -31t-54.5 -23.5t-50.5 -17.5q-5 -30 -5 -65q0 -87 12 -171l81 121q32 48 58 69t62 21q28 0 50 -18t22 -45 q0 -26 -14 -41.5t-39 -15.5q-49 0 -49 48q0 17 8 36q-16 -2 -30 -11.5t-24 -22t-21 -28t-20 -31.5l-78 -119q7 -109 82 -109q20 -1 38.5 10.5t25.5 19t25.5 37t19.5 30.5z" />
<glyph unicode="'" horiz-adv-x="259" d="M170 470l-17 150q-5 38 -5 44q0 63 45 63t45 -63q0 -6 -5 -44l-17 -150q-3 -31 -23 -31t-23 31z" />
<glyph unicode="(" horiz-adv-x="407" d="M514 715v-25q-87 -27 -158 -89.5t-113.5 -141.5t-65 -162.5t-22.5 -160.5q0 -166 120 -284l-16 -18q-194 164 -194 363q0 190 127.5 331t321.5 187z" />
<glyph unicode=")" horiz-adv-x="407" d="M-96 -166v25q87 27 158 89.5t113.5 141.5t65 162.5t22.5 160.5q0 166 -120 284l16 18q194 -164 194 -363q0 -190 -127.5 -331t-321.5 -187z" />
<glyph unicode="*" horiz-adv-x="352" d="M247 424l-3 102q-18 -18 -31.5 -46t-25.5 -43.5t-36 -15.5q-21 0 -35 15.5t-14 36.5q0 22 25 34.5t58 20t42 16.5q-8 8 -70 22q-31 8 -44.5 17t-13.5 29t14 37.5t34 17.5q15 0 27.5 -12.5t32 -40.5t36.5 -47q3 11 3 27q0 15 -4 41t-4 30q0 22 12 36t35 14q18 0 35 -12.5 t17 -29.5q0 -19 -31.5 -57.5t-34.5 -56.5q18 1 58.5 20.5t54.5 19.5q20 0 29 -17.5t9 -38.5q0 -17 -11 -28.5t-28 -11.5q-14 0 -54 15t-60 16q10 -21 42 -54.5t32 -50.5q0 -22 -16 -35.5t-38 -13.5q-21 0 -31.5 12.5t-10.5 31.5z" />
<glyph unicode="+" horiz-adv-x="600" d="M267 284v218h66v-218h218v-66h-218v-218h-66v218h-218v66h218z" />
<glyph unicode="," horiz-adv-x="278" d="M0 -168l-8 27q53 23 90.5 60t37.5 85q-14 -10 -32 -10q-24 0 -43 17.5t-19 42.5q0 28 17.5 47t49.5 19q38 0 59.5 -26.5t21.5 -65.5q0 -65 -51.5 -115t-122.5 -81z" />
<glyph unicode="-" horiz-adv-x="296" d="M13 209l16 54h238l-14 -54h-240z" />
<glyph unicode="." horiz-adv-x="278" d="M26 57q0 26 18.5 44.5t44.5 18.5t44.5 -18.5t18.5 -44.5t-18.5 -44.5t-44.5 -18.5t-44.5 18.5t-18.5 44.5z" />
<glyph unicode="/" horiz-adv-x="370" d="M-68 -12l481 739h72l-481 -739h-72z" />
<glyph unicode="0" horiz-adv-x="556" d="M220 13q44 0 82 43t60 103.5t34.5 117.5t12.5 93q0 107 -80 107q-43 0 -81 -44t-60.5 -105.5t-35 -119.5t-12.5 -95q0 -51 23 -75.5t57 -24.5zM511 309q0 -75 -37 -148.5t-107 -123t-154 -49.5q-83 0 -129 50t-46 137q0 71 35 145t104.5 128t154.5 54q82 0 130.5 -54 t48.5 -139z" />
<glyph unicode="1" horiz-adv-x="556" d="M475 465h-84l-128 -440h95l-6 -25h-285l6 25h82l128 440h-92l6 25h284z" />
<glyph unicode="2" horiz-adv-x="556" d="M453 158l-65 -158h-352l8 25q83 65 219 192q45 42 63.5 72.5t18.5 68.5q0 37 -23 63.5t-65 26.5q-94 0 -145 -147l-26 10q32 98 92.5 144.5t137.5 46.5q55 0 96 -31.5t41 -87.5q0 -42 -18 -74t-73 -77q-8 -7 -93 -67t-105 -73v-2h230l34 78z" />
<glyph unicode="3" horiz-adv-x="556" d="M181 385l-22 20q27 31 43 47t48 33t65 17q50 0 78 -27t28 -63q0 -19 -5 -35.5t-13.5 -29t-20 -24t-25 -20t-28.5 -17t-29 -16.5q23 -12 42.5 -42.5t19.5 -72.5q0 -71 -36 -134t-96 -109t-121.5 -77.5t-129.5 -54.5l-9 27q272 130 272 310q0 34 -12 67t-24 43l-42 -13 l-9 29q158 53 158 138q0 25 -14.5 40t-38.5 15q-25 0 -41 -12t-38 -39z" />
<glyph unicode="4" horiz-adv-x="556" d="M-28 31l457 459h47l-131 -436h99v-54h-114l-61 -208h-106l65 208h-256v31zM330 352l-299 -298h212l89 296z" />
<glyph unicode="5" horiz-adv-x="556" d="M-82 -220l-6 30q53 16 105 44.5t101 70t79.5 99.5t30.5 122q0 41 -7 66t-28 59q-17 26 -17 39q0 14 12 54l35 126h140q31 0 40.5 7.5t18.5 42.5h31l-37 -122q-5 -17 -11.5 -20.5t-26.5 -3.5h-153l-11 -46q-2 -10 -2 -20q0 -15 19 -31q40 -30 58 -47.5t32.5 -49.5 t14.5 -76q0 -60 -27.5 -111.5t-69 -87.5t-100 -66t-111 -47.5t-110.5 -31.5z" />
<glyph unicode="6" horiz-adv-x="556" d="M383 281q0 43 -21 75.5t-71 32.5q-46 0 -83 -49.5t-54 -107.5t-17 -102q0 -117 85 -117q41 0 74 29t51 72.5t27 86.5t9 80zM501 706l5 -25q-84 -35 -155.5 -114t-111.5 -164l2 -2q47 36 103 36q135 0 135 -169q0 -102 -75.5 -191t-177.5 -89q-78 0 -122.5 54t-44.5 124 q0 83 34 163.5t85 141.5t112.5 111.5t115.5 81t95 42.5z" />
<glyph unicode="7" horiz-adv-x="556" d="M100 336l48 154h362q-10 -20 -81.5 -157.5t-98.5 -193.5t-70.5 -160.5t-65.5 -186.5h-120q28 72 72 155.5t91 157t99 153t96 142.5h-242q-28 0 -39.5 -12.5t-23.5 -51.5h-27z" />
<glyph unicode="8" horiz-adv-x="556" d="M67 146q0 40 17 75t52 64.5t60.5 46.5t68.5 41q-61 98 -61 161q0 81 57.5 126.5t128.5 45.5q65 0 107.5 -39.5t42.5 -98.5q0 -58 -36.5 -92.5t-127.5 -77.5q6 -8 19 -33t26.5 -52.5t23.5 -63.5t10 -67q0 -84 -63 -139t-145 -55q-87 0 -133.5 46t-46.5 112zM151 135 q0 -52 27 -87t78 -35q48 0 75.5 36.5t27.5 86.5q0 91 -81 215q-46 -31 -70.5 -56t-40.5 -65t-16 -95zM294 584q0 -62 69 -165q105 54 105 154q0 44 -19.5 76t-64.5 32q-38 0 -64 -27t-26 -70z" />
<glyph unicode="9" horiz-adv-x="556" d="M159 209q0 -43 21 -75.5t71 -32.5q46 0 83 49.5t54 107.5t17 102q0 117 -85 117q-41 0 -74 -29t-51 -72.5t-27 -86.5t-9 -80zM41 -220l-5 25q84 38 155.5 118t111.5 164l-2 2q-51 -36 -103 -36q-135 0 -135 169q0 102 75.5 191t177.5 89q78 0 122.5 -54t44.5 -124 q0 -83 -34 -163.5t-85 -141.5t-112.5 -112.5t-115 -82t-95.5 -44.5z" />
<glyph unicode=":" horiz-adv-x="278" d="M26 57q0 26 18.5 44.5t44.5 18.5t44.5 -18.5t18.5 -44.5t-18.5 -44.5t-44.5 -18.5t-44.5 18.5t-18.5 44.5zM137 439q0 26 18.5 44.5t44.5 18.5t44.5 -18.5t18.5 -44.5t-18.5 -44.5t-44.5 -18.5t-44.5 18.5t-18.5 44.5z" />
<glyph unicode=";" horiz-adv-x="278" d="M0 -168l-8 27q53 23 90.5 60t37.5 85q-14 -10 -32 -10q-24 0 -43 17.5t-19 42.5q0 28 17.5 47t49.5 19q38 0 59.5 -26.5t21.5 -65.5q0 -65 -51.5 -115t-122.5 -81zM137 439q0 26 18.5 44.5t44.5 18.5t44.5 -18.5t18.5 -44.5t-18.5 -44.5t-44.5 -18.5t-44.5 18.5 t-18.5 44.5z" />
<glyph unicode="&#x3c;" horiz-adv-x="600" d="M551 514v-33l-457 -213l457 -212v-68l-502 229v68z" />
<glyph unicode="=" horiz-adv-x="600" d="M551 384v-66h-502v66h502zM551 184v-66h-502v66h502z" />
<glyph unicode="&#x3e;" horiz-adv-x="600" d="M49 -12v74l457 205l-457 212v35l502 -229v-68z" />
<glyph unicode="?" horiz-adv-x="444" d="M146 174h-24q11 63 36.5 89t87.5 50t89 88.5t27 133.5q0 44 -18 76t-56 32q-55 0 -55 -42q0 -8 5 -30.5t5 -31.5q0 -23 -16.5 -35t-38.5 -12q-29 0 -44 18t-15 43q0 56 47 85.5t105 29.5q82 0 132.5 -55t50.5 -134q0 -77 -46 -135.5t-131 -67.5q-18 -2 -34.5 -4t-30 -5 t-25.5 -9t-21.5 -16.5t-17 -27t-12.5 -40.5zM37 57q0 26 18.5 44.5t44.5 18.5t44.5 -18.5t18.5 -44.5t-18.5 -44.5t-44.5 -18.5t-44.5 18.5t-18.5 44.5z" />
<glyph unicode="@" horiz-adv-x="800" d="M346 298q0 -92 65 -92q39 0 82 67t43 158q0 68 -47 68q-46 0 -94.5 -57.5t-48.5 -143.5zM556 493l9 42h74l-68 -269q-6 -26 -6 -35q0 -8 2.5 -15.5t13 -15.5t27.5 -8q61 0 100.5 70.5t39.5 148.5q0 47 -21 95.5t-59 90t-98 68t-130 26.5q-129 0 -214.5 -95t-85.5 -266 q0 -120 87.5 -210t222.5 -90q65 0 110.5 12.5t100.5 37.5l14 -31q-130 -61 -224 -61q-80 0 -148.5 23t-114 60t-77.5 84t-46.5 94t-14.5 92q0 169 114 277.5t276 108.5q148 0 249 -90.5t101 -224.5q0 -58 -22.5 -115.5t-69.5 -99t-107 -41.5q-86 0 -92 76h-2 q-36 -42 -65.5 -59t-65.5 -17q-40 0 -69 33.5t-29 90.5q0 27 8 61t25 70.5t41 66.5t59.5 49.5t76.5 19.5q62 0 76 -54h2z" />
<glyph unicode="A" d="M447 727h25l4 -702h100l-7 -25h-310l7 25h100v243h-208l-166 -243h106l-7 -25h-205l7 25h64zM175 293h191v277h-2z" />
<glyph unicode="B" horiz-adv-x="648" d="M359 690l-83 -284h61q48 0 85 18t56.5 43t32.5 55.5t16.5 51t3.5 34.5q0 28 -9.5 45.5t-28 25t-34.5 9.5t-40 2h-60zM143 690l8 25h307q94 0 137.5 -33t43.5 -102q0 -91 -61 -140t-161 -49v-2q77 -1 125.5 -48.5t48.5 -124.5q0 -34 -12 -68t-39.5 -69t-82.5 -57t-131 -22 h-370l7 25h90l192 665h-102zM268 381l-103 -356h87q109 0 167 65t58 174q0 68 -46 92.5t-120 24.5h-43z" />
<glyph unicode="C" horiz-adv-x="722" d="M596 233l27 -5l-66 -206q-120 -34 -218 -34q-125 0 -197.5 80.5t-72.5 185.5q0 69 29.5 149.5t82 153.5t137 121.5t181.5 48.5q107 0 230 -64l-52 -202l-23 5q11 51 11 85q0 65 -40 108t-112 43q-68 0 -126.5 -46.5t-95.5 -114t-64 -143t-38.5 -132t-11.5 -84.5 q0 -84 42.5 -126.5t116.5 -42.5q89 0 157 65.5t103 154.5z" />
<glyph unicode="D" horiz-adv-x="796" d="M367 690l-194 -665h132q64 0 118 21t90 54t64.5 78t44 89t25.5 91.5t13.5 81.5t3.5 62q0 58 -14.5 97t-43 58t-59.5 26t-74 7h-106zM151 690l7 25h320q28 0 44 -0.5t45 -2.5t47 -6.5t43 -13t41 -21t34 -31.5t28 -43.5t17 -58.5t7 -75q0 -123 -52.5 -228t-153 -170 t-228.5 -65h-386l7 25h89l192 665h-101z" />
<glyph unicode="E" horiz-adv-x="704" d="M689 715l-38 -211h-22q4 19 4 42q0 78 -37.5 111t-119.5 33h-118l-83 -284h63q40 0 67 8t46 30t30 44t27 64h26l-101 -351h-24q18 73 18 104q0 76 -93 76h-67l-102 -356h191q192 0 263 201h26l-69 -226h-620l7 25h90l192 665h-102l7 25h539z" />
<glyph unicode="F" horiz-adv-x="630" d="M140 690l7 25h581l-57 -251h-27q11 68 11 105q0 121 -160 121h-137l-97 -325h40q86 0 126.5 33t69.5 120h26l-104 -359h-25q14 58 14 89q0 92 -106 92h-49l-89 -315h109l-6 -25h-311l7 25h89l192 665h-104z" />
<glyph unicode="G" horiz-adv-x="796" d="M681 299l-73 -256q-15 -13 -102 -34t-147 -21q-74 0 -131.5 23.5t-91 62.5t-50.5 84.5t-17 92.5q0 121 64 231t171.5 177.5t227.5 67.5q106 0 222 -59l-56 -205h-25q7 29 7 76q0 75 -44.5 119t-119.5 44q-53 0 -102 -26.5t-86 -70.5t-67.5 -99t-49.5 -113t-29.5 -112 t-10.5 -97q0 -50 17 -85.5t45.5 -53t56 -25t57.5 -7.5q41 0 72 9.5t50.5 23t35.5 41.5t25 51.5t22 67.5l26 93h-113l7 25h299l-7 -25h-83z" />
<glyph unicode="H" horiz-adv-x="796" d="M144 690l6 25h314l-7 -25h-98l-93 -318h335l90 318h-104l7 25h308l-7 -25h-93l-194 -665h98l-7 -25h-315l7 25h106l96 322h-335l-94 -322h103l-7 -25h-304l7 25h90l192 665h-101z" />
<glyph unicode="I" horiz-adv-x="352" d="M143 690l7 25h305l-7 -25h-90l-193 -665h96l-7 -25h-298l7 25h89l192 665h-101z" />
<glyph unicode="J" horiz-adv-x="444" d="M334 690h-105l7 25h306l-7 -25h-89l-132 -461q-1 -3 -2 -8q-15 -50 -23 -74t-26.5 -60.5t-39 -54t-55.5 -31t-80 -13.5q-53 0 -87.5 28.5t-34.5 79.5q0 26 17.5 46t42.5 20q22 0 36 -11.5t14 -32.5t-19 -39.5t-19 -31.5q0 -14 11.5 -24t31.5 -10q16 0 30 9t23 21t19.5 37 t16 42.5t15.5 51.5z" />
<glyph unicode="K" horiz-adv-x="685" d="M143 690l7 25h311l-7 -25h-96l-88 -301h85l240 301h-79l6 25h194l-7 -25h-78l-194 -240l131 -425h90l-7 -25h-306l7 25h93l-97 339h-87l-96 -339h102l-7 -25h-304l7 25h89l192 665h-101z" />
<glyph unicode="L" horiz-adv-x="667" d="M144 690l7 25h320l-7 -25h-106l-193 -665h129q124 0 195 47.5t109 148.5h27l-63 -221h-606l7 25h90l192 665h-101z" />
<glyph unicode="M" horiz-adv-x="963" d="M144 690l6 25h222l77 -568l395 568h219l-7 -25h-88l-190 -665h92l-7 -25h-299l6 25h93l187 652l-2 2l-467 -679h-25l-86 678h-2l-182 -653h97l-7 -25h-220l7 25h89l191 665h-99z" />
<glyph unicode="N" horiz-adv-x="759" d="M627 690l7 25h225l-7 -25h-86l-205 -696h-24l-264 673h-2l-182 -642h101l-7 -25h-227l6 25h91l192 665h-102l7 25h218l215 -548h2l149 523h-107z" />
<glyph unicode="O" horiz-adv-x="759" d="M69 238q0 111 57.5 224t158.5 189t212 76q63 0 112.5 -23t78.5 -60t44 -80t15 -87q0 -111 -57.5 -224t-158.5 -189t-212 -76q-63 0 -112.5 23t-78.5 60t-44 80t-15 87zM177 160q0 -74 43 -110.5t106 -36.5q60 0 113 45t88.5 111t61.5 143t38 140.5t12 102.5 q0 74 -43 110.5t-106 36.5q-60 0 -113 -45t-88.5 -111t-61.5 -143t-38 -140.5t-12 -102.5z" />
<glyph unicode="P" horiz-adv-x="630" d="M403 690h-44l-107 -364h80q50 0 89.5 20t60.5 49t35 65.5t18 63.5t4 50q0 73 -31 94.5t-105 21.5zM143 690l7 25h326q30 0 54 -3.5t49 -13.5t42 -26.5t27.5 -45.5t10.5 -67q0 -28 -7.5 -58.5t-29.5 -67t-56 -65t-93 -48t-134 -19.5h-95l-79 -276h106l-7 -25h-308l7 25h89 l192 665h-101z" />
<glyph unicode="Q" horiz-adv-x="759" d="M454 -229l-7 -25h-43q-160 0 -160 98q0 14 4.5 44t4.5 44q0 43 -35 73q-68 26 -108.5 91t-40.5 142q0 111 57.5 224t158.5 189t212 76q63 0 112.5 -23t78.5 -60t44 -80t15 -87q0 -111 -57.5 -224t-158.5 -189t-212 -76q-29 0 -54 5l-2 -2q39 -16 64 -45.5t25 -67.5 q0 -12 -1.5 -34t-1.5 -34q0 -39 56 -39h49zM177 160q0 -74 43 -110.5t106 -36.5q60 0 113 45t88.5 111t61.5 143t38 140.5t12 102.5q0 74 -43 110.5t-106 36.5q-60 0 -113 -45t-88.5 -111t-61.5 -143t-38 -140.5t-12 -102.5z" />
<glyph unicode="R" horiz-adv-x="685" d="M143 690l7 25h342q79 0 118.5 -32.5t39.5 -86.5q0 -83 -75.5 -139t-160.5 -62v-2q71 -8 120 -41t49 -94q0 -32 -10 -90t-10 -86q0 -26 16 -41.5t49 -15.5h37l-6 -25h-111q-99 0 -99 83q0 27 13 100t13 111q0 48 -33 67.5t-108 19.5h-66l-103 -356h101l-7 -25h-303l7 25 h89l193 665h-102zM358 690l-82 -284h66q98 0 146 56.5t48 140.5q0 43 -24 65t-82 22h-72z" />
<glyph unicode="S" d="M25 69l52 197l25 -4q-7 -31 -7 -65q0 -94 54 -139t137 -45t136.5 45t53.5 102q0 43 -31.5 76t-76.5 57.5t-90 51t-76.5 69.5t-31.5 100q0 92 59 152.5t156 60.5q104 0 201 -59l-26 -168h-28q3 26 3 43q0 69 -44.5 114t-114.5 45q-60 0 -100 -36.5t-40 -87.5 q0 -41 31.5 -70t76.5 -50.5t90 -47t76.5 -72.5t31.5 -113q0 -109 -75.5 -173t-180.5 -64q-138 0 -261 81z" />
<glyph unicode="T" horiz-adv-x="667" d="M90 513l63 202h617l-50 -217h-26q8 38 8 62q0 27 -5.5 48t-12.5 34.5t-23 23t-27.5 14.5t-36 7t-39 2.5t-44.5 0.5l-193 -665h113l-7 -25h-325l7 25h97l193 665h-54q-54 0 -95.5 -16.5t-67 -47t-38.5 -55t-26 -58.5h-28z" />
<glyph unicode="U" horiz-adv-x="778" d="M142 690l7 25h314l-7 -25h-95l-134 -455q-23 -78 -23 -117q0 -99 165 -99q110 0 162 45.5t90 178.5l128 447h-104l6 25h222l-7 -25h-85l-143 -485q-38 -129 -100.5 -173t-199.5 -44q-28 0 -45.5 1t-50.5 4t-54.5 12t-44.5 23t-35 38.5t-12 56.5q0 24 13 74l137 493h-104z " />
<glyph unicode="V" horiz-adv-x="667" d="M222 690h-83l7 25h278l-7 -25h-86l-111 -554l2 -2l504 556h-102l7 25h203l-6 -25h-66l-642 -702h-31z" />
<glyph unicode="W" horiz-adv-x="926" d="M82 -12l134 702h-81l6 25h275l-6 -25h-88l-99 -509l2 -2l371 511h-89l5 25h287l-5 -25h-89l-100 -518l2 -2l376 520h-99l6 25h204l-5 -25h-77l-509 -702h-34l126 655h-2l-477 -655h-34z" />
<glyph unicode="X" horiz-adv-x="685" d="M144 690l6 25h306l-6 -25h-102l73 -261l238 261h-103l7 25h231l-6 -25h-91l-270 -293l105 -372h92l-7 -25h-313l9 25h104l-81 303l-285 -303h104l-6 -25h-230l7 25h87l318 334l-91 331h-96z" />
<glyph unicode="Y" d="M74 0l6 25h104l103 358l-104 307h-81l4 25h297l-6 -25h-98l97 -292l258 292h-91l6 25h184l-6 -25h-55l-303 -340l-93 -325h111l-5 -25h-328z" />
<glyph unicode="Z" horiz-adv-x="704" d="M118 517l61 198h547l-607 -690h132q52 0 87 2t78.5 8t74.5 19t62.5 34.5t55.5 55t41 79.5h27l-69 -223h-648l606 690h-119q-55 0 -94 -5.5t-80.5 -22.5t-73 -53t-54.5 -92h-27z" />
<glyph unicode="[" horiz-adv-x="333" d="M0 -166l252 881h209l-5 -25h-122l-236 -831h129l-6 -25h-221z" />
<glyph unicode="\" horiz-adv-x="370" d="M135 727l222 -739h-63l-222 739h63z" />
<glyph unicode="]" horiz-adv-x="333" d="M343 715l-252 -881h-209l5 25h122l236 831h-129l6 25h221z" />
<glyph unicode="^" horiz-adv-x="600" d="M177 329h-72l193 365h64l193 -365h-72l-153 287z" />
<glyph unicode="_" horiz-adv-x="500" d="M500 -125h-500v50h500v-50z" />
<glyph unicode="`" horiz-adv-x="278" d="M285 582h-37l-145 108q-14 10 -14 31q0 15 10 24.5t27 9.5q24 0 38 -19z" />
<glyph unicode="a" d="M464 490h88l-86 -303q-25 -89 -25 -113q0 -20 17 -20q19 0 51.5 39t50.5 75l21 -15q-34 -63 -83 -114t-102 -51q-57 0 -57 61q0 31 12 67l-2 2q-77 -130 -193 -130q-51 0 -88.5 36.5t-37.5 115.5q0 80 48.5 165t124 141t146.5 56q42 0 64.5 -27.5t22.5 -71.5h2zM126 94 q0 -31 17 -50.5t47 -19.5q46 0 90.5 42t73.5 101t46.5 118t17.5 97q0 95 -68 95q-45 0 -89 -45.5t-72 -109.5t-45.5 -126.5t-17.5 -101.5z" />
<glyph unicode="b" horiz-adv-x="574" d="M121 690l4 25h70q57 0 112 6l-91 -330l2 -2q40 57 76 85t93 28q51 0 92 -37t41 -120q0 -86 -50.5 -169.5t-133 -135.5t-168.5 -52q-41 0 -68.5 10t-38 26.5t-14 28t-3.5 24.5q0 29 24 117l136 496h-83zM424 376q0 38 -16.5 64t-50.5 26q-50 0 -94 -53.5t-69 -124 t-39.5 -128.5t-14.5 -79q0 -17 2 -28.5t14 -22.5t34 -11q59 0 116 71.5t87.5 153.5t30.5 132z" />
<glyph unicode="c" horiz-adv-x="463" d="M415 160l21 -12q-34 -69 -93 -114.5t-130 -45.5q-79 0 -127 47t-48 129q0 55 24.5 115t64.5 109.5t96 81.5t113 32q54 0 96 -34.5t42 -88.5q0 -65 -55 -65q-24 0 -35.5 13.5t-11.5 34.5q0 7 6 33.5t6 39.5q0 42 -52 42q-40 0 -77.5 -44t-61.5 -104t-38.5 -117t-14.5 -89 q0 -52 23 -78t74 -26q54 0 103 43t75 98z" />
<glyph unicode="d" d="M132 110q0 -80 62 -80q59 0 112.5 67t81.5 147.5t28 136.5q0 36 -19 63t-54 27q-53 0 -104.5 -71.5t-79 -155t-27.5 -134.5zM576 161l20 -13q-18 -31 -34.5 -53.5t-41 -49.5t-53 -42t-58.5 -15t-46 19t-16 50q0 26 8 59l-2 2v-2q-84 -128 -195 -128q-56 0 -92 33.5 t-36 110.5q0 79 44.5 165.5t116 145.5t142.5 59q41 0 67.5 -23.5t33.5 -60.5h2l80 272h-93l5 25h82q56 0 112 6l-149 -505q-36 -121 -36 -147q0 -27 29 -27q21 0 56.5 43.5t53.5 75.5z" />
<glyph unicode="e" horiz-adv-x="463" d="M397 174l23 -7q-37 -76 -97.5 -127.5t-143.5 -51.5q-141 0 -141 159q0 85 41 167.5t110 135t143 52.5q44 0 75.5 -21t31.5 -63q0 -21 -13 -42t-30 -37t-47.5 -33.5t-51.5 -27.5t-57.5 -24t-49 -18t-41.5 -14q-15 -58 -15 -105q0 -93 80 -93q98 0 183 150zM361 425 q0 23 -12.5 37.5t-34.5 14.5q-47 0 -82 -56t-73 -168q202 69 202 172z" />
<glyph unicode="f" horiz-adv-x="315" d="M173 465h-94l7 25h95q9 36 26.5 74.5t43.5 76.5t63.5 62t79.5 24q38 0 69.5 -22t31.5 -57q0 -29 -13.5 -46.5t-37.5 -17.5q-19 0 -32 11.5t-13 28.5q0 13 12 27.5t12 25.5t-9.5 18t-22.5 7q-41 0 -65.5 -46t-47.5 -166h102l-6 -25h-100q-11 -65 -31 -142t-54.5 -168.5 t-75.5 -164t-97 -121.5t-116 -49q-42 0 -66 24.5t-24 59.5q0 62 52 62q19 0 31.5 -12t12.5 -29q0 -8 -6.5 -26t-6.5 -25q0 -23 29 -23q68 0 105 83.5t97 331.5z" />
<glyph unicode="g" horiz-adv-x="593" d="M493 -1q0 -66 -42.5 -117t-108 -76.5t-141.5 -25.5q-43 0 -79.5 6t-71 20t-54.5 41.5t-20 66.5q0 98 128 120v2q-66 21 -66 93q0 51 39.5 84t97.5 35v2q-25 24 -25 77q0 79 55.5 127t134.5 48q91 0 132 -67q5 30 24 48.5t49 18.5q32 0 52 -18t20 -50q0 -45 -41 -45 q-16 0 -26.5 9.5t-10.5 24.5q0 7 3 17t3 16q0 15 -18 15q-20 0 -29.5 -21.5t-9.5 -44.5q0 -4 1.5 -17.5t1.5 -21.5q0 -74 -53.5 -124t-130.5 -50q-71 0 -115 37q-37 -1 -62.5 -14.5t-25.5 -41.5q0 -38 44 -47t151 -9q41 0 72 -4.5t60.5 -16t45.5 -36t16 -61.5zM48 -84 q0 -54 48 -82.5t106 -28.5q104 0 170.5 46t66.5 98q0 22 -16 38t-36 23.5t-57.5 11.5t-59.5 4.5t-62 0.5q-160 0 -160 -111zM234 287q0 -31 16 -50.5t47 -19.5q34 0 59 23t36 57.5t16 62.5t5 50q0 67 -67 67q-33 0 -57 -20t-35 -51.5t-15.5 -60.5t-4.5 -58z" />
<glyph unicode="h" d="M31 0l195 690h-95l7 25h81q57 0 112 6l-105 -347l2 -2v2q31 48 87.5 88t111.5 40q42 0 72.5 -22.5t30.5 -62.5q0 -16 -8 -43l-72 -234q-18 -60 -18 -81q0 -23 22 -23q32 0 65.5 51.5t46.5 94.5l25 -5q-70 -189 -187 -189q-29 0 -48.5 19t-19.5 46q0 28 14 71l78 249 q12 40 12 58q0 35 -43 35q-57 0 -123.5 -72.5t-87.5 -155.5l-61 -238h-94z" />
<glyph unicode="i" horiz-adv-x="315" d="M155 465h-89l5 25h75q56 0 112 6l-109 -392q-9 -32 -9 -42q0 -20 22 -20q35 0 118 120l20 -14q-15 -23 -37 -51t-43.5 -52t-51 -40.5t-58.5 -16.5t-47.5 17.5t-18.5 42.5q0 18 16 77zM195 658q0 23 17 40t40 17t40 -17t17 -40t-17 -40t-40 -17t-40 17t-17 40z" />
<glyph unicode="j" horiz-adv-x="296" d="M-131 -186v25q32 5 55.5 14t39.5 23t28 32.5t20 41.5t16 51t17 60l110 404h-89l5 25h75q56 0 112 6l-136 -494q-14 -49 -25.5 -74t-38 -49.5t-70.5 -38.5t-119 -26zM195 658q0 23 17 40t40 17t40 -17t17 -40t-17 -40t-40 -17t-40 17t-17 40z" />
<glyph unicode="k" horiz-adv-x="593" d="M228 690h-93l5 25h75q61 0 122 6l-122 -395h30q36 0 64 17.5t47 43t36.5 50.5t42.5 42.5t56 17.5q28 0 48.5 -15.5t20.5 -42.5q0 -51 -42 -51q-21 0 -31.5 9.5t-10.5 24.5q0 5 2.5 15t2.5 13q0 11 -15 11q-18 0 -46 -34t-58 -70t-51 -39v-2q47 -8 78.5 -36t31.5 -71 q0 -29 -12.5 -79t-12.5 -71q0 -12 7.5 -20.5t19.5 -8.5q35 0 65.5 44t48.5 92l19 -9l1 -1h2q-21 -67 -66.5 -117.5t-102.5 -50.5q-37 0 -60.5 20.5t-23.5 52.5q0 31 15.5 95t15.5 92q0 19 -9 30.5t-26 16t-28.5 5.5t-30.5 1h-35l-84 -301h-102z" />
<glyph unicode="l" horiz-adv-x="315" d="M125 690l5 25h69q61 0 122 6l-172 -617q-9 -32 -9 -42q0 -20 22 -20q37 0 109 128l21 -11q-87 -171 -182 -171q-29 0 -47.5 17.5t-18.5 42.5q0 18 16 77l158 565h-93z" />
<glyph unicode="m" horiz-adv-x="907" d="M28 0l123 465h-87l5 25h73q56 0 112 6l-34 -137h2q29 36 45 54t44 43t58.5 35.5t66.5 10.5q42 0 69.5 -19.5t27.5 -59.5q0 -27 -9 -49h4q31 48 87.5 88t111.5 40q42 0 72.5 -22.5t30.5 -62.5q0 -16 -8 -43l-72 -234q-18 -60 -18 -81q0 -23 22 -23q32 0 65.5 51.5 t46.5 94.5l25 -5q-70 -189 -187 -189q-29 0 -48.5 19t-19.5 46q0 28 14 71l78 249q12 40 12 58q0 35 -43 35q-57 0 -123.5 -72.5t-87.5 -155.5l-61 -238h-96l85 315q17 59 17 98q0 53 -44 53t-111.5 -72.5t-99.5 -191.5l-54 -202h-94z" />
<glyph unicode="n" d="M31 0l130 465h-89l5 25h75q56 0 112 6l-38 -122h2q31 48 87.5 88t111.5 40q42 0 72.5 -22.5t30.5 -62.5q0 -16 -8 -43l-72 -234q-18 -60 -18 -81q0 -23 22 -23q32 0 65.5 51.5t46.5 94.5l25 -5q-70 -189 -187 -189q-29 0 -48.5 19t-19.5 46q0 28 14 71l78 249 q12 40 12 58q0 35 -43 35q-57 0 -123.5 -72.5t-87.5 -155.5l-61 -238h-94z" />
<glyph unicode="o" horiz-adv-x="574" d="M520 299q0 -124 -80 -217.5t-201 -93.5q-87 0 -136 58t-49 145q0 124 80.5 217.5t200.5 93.5q87 0 136 -58t49 -145zM430 383q0 94 -91 94q-52 0 -88 -33q-33 -30 -70 -153t-37 -184q0 -94 91 -94q52 0 88 33q33 30 70 153t37 184z" />
<glyph unicode="p" horiz-adv-x="593" d="M-54 -220l203 685h-84l7 25h70q57 0 111 6l-28 -100l2 -2q35 35 54 52t56 36.5t72 19.5q64 0 97 -46t33 -112q0 -81 -39 -164t-105 -137.5t-136 -54.5q-52 0 -79.5 25t-43.5 77h-2l-93 -310h-95zM437 360q0 100 -66 100q-71 0 -140.5 -107.5t-69.5 -227.5 q0 -42 21.5 -71.5t62.5 -29.5q52 0 98.5 66t70 143t23.5 127z" />
<glyph unicode="q" horiz-adv-x="574" d="M576 490l-202 -710h-97l85 292l-2 2q-65 -86 -159 -86q-75 0 -111 42.5t-36 118.5q0 73 42.5 155t114.5 140t147 58q36 0 64.5 -18t37.5 -51h2l19 57h95zM156 109q0 -39 19.5 -62t56.5 -23q56 0 106.5 66t77 148t26.5 143q0 42 -18.5 66t-54.5 24q-53 0 -104 -62.5 t-80 -146.5t-29 -153z" />
<glyph unicode="r" horiz-adv-x="463" d="M156 465h-91l4 25h80q57 0 112 6l-30 -122l2 -2q24 31 37 46t38 39t51.5 34.5t55.5 10.5q36 0 60 -20.5t24 -52.5q0 -35 -16.5 -56t-43.5 -21q-53 0 -53 40q0 15 11.5 33t11.5 28q0 18 -20 18q-52 0 -124.5 -95.5t-113.5 -263.5l-27 -112h-93z" />
<glyph unicode="s" horiz-adv-x="426" d="M97 361q0 61 46.5 101t107.5 40q45 0 85 -25.5t40 -65.5q0 -23 -12 -35t-30 -12q-27 0 -34.5 13.5t-7.5 36.5q0 63 -62 63q-27 0 -47 -18t-20 -45q0 -25 18 -48.5t44 -43.5t51.5 -42t43.5 -55t18 -72q0 -69 -47 -117t-121 -48q-59 0 -109.5 30t-50.5 82q0 21 11.5 35.5 t33.5 14.5q26 0 35.5 -13.5t9.5 -46.5q0 -77 74 -77q41 0 69.5 22t28.5 60q0 24 -18 48t-44 45.5t-51.5 45t-43.5 56.5t-18 71z" />
<glyph unicode="t" horiz-adv-x="333" d="M155 465h-93l8 25h93l33 126h96l-36 -126h105l-7 -25h-106l-102 -362q-6 -22 -6 -33q0 -9 7.5 -15.5t17.5 -6.5q26 0 60.5 39t64.5 88l21 -15q-15 -20 -30 -43t-35 -46t-40 -41.5t-45.5 -30t-51.5 -11.5q-28 0 -46.5 18.5t-18.5 44.5q0 20 30 127z" />
<glyph unicode="u" d="M556 490l-104 -366q-9 -32 -9 -51q0 -11 7 -18t17 -7q16 0 42 28t42.5 52.5t29.5 46.5l19 -14q-19 -34 -34.5 -57.5t-40.5 -53.5t-54.5 -46t-61.5 -16q-28 0 -45 15t-17 44q0 35 21 108l-2 2q-107 -169 -221 -169q-40 0 -63.5 22.5t-23.5 67.5q0 23 14 74l88 313h-91 l6 25h72q57 0 112 6l-92 -341q-13 -50 -13 -74q0 -45 36 -45q56 0 127.5 93.5t112.5 238.5l35 122h91z" />
<glyph unicode="v" horiz-adv-x="556" d="M31 311l-22 8q19 39 31.5 60.5t36.5 55.5t52.5 50.5t60.5 16.5q33 0 53.5 -20t20.5 -50q0 -38 -28 -126l-43 -135q-19 -61 -19 -89t13 -43t35 -15q89 0 173 99t84 199q0 32 -14 51t-30.5 25t-30.5 20.5t-14 38.5q0 23 15.5 34t37.5 11q42 0 60 -34t18 -81 q0 -67 -26 -138.5t-69 -129t-104.5 -94.5t-125.5 -37q-51 0 -81.5 29.5t-30.5 77.5q0 29 19 95l50 164q15 45 15 68q0 26 -23 26q-13 0 -28 -11t-27 -27.5t-24.5 -35.5t-20.5 -35.5t-14 -27.5z" />
<glyph unicode="w" horiz-adv-x="852" d="M468 490h95l-100 -333q-13 -43 -13 -71t17 -45t43 -17q79 0 167 104.5t88 194.5q0 29 -12.5 45.5t-27.5 21t-27.5 18.5t-12.5 39q0 23 16 39t40 16q27 0 46.5 -27.5t19.5 -75.5q0 -92 -43 -186.5t-123 -159.5t-172 -65q-52 0 -80.5 27.5t-28.5 71.5q0 35 11 62l-2 2 q-33 -59 -96 -111t-125 -52q-41 0 -63.5 24.5t-22.5 62.5q0 25 21 97l85 293h-92l7 25h78q57 0 112 6l-106 -353q-15 -51 -15 -67t10.5 -28t32.5 -12q60 0 123.5 84t94.5 187z" />
<glyph unicode="x" d="M537 166l22 -12q-34 -67 -97.5 -116.5t-131.5 -49.5q-103 0 -109 110h-2q-21 -44 -59 -77t-80 -33q-43 0 -67 21.5t-24 62.5q0 28 14 45.5t39 17.5q21 0 32 -13t11 -32q0 -10 -5 -28t-5 -22q0 -21 24 -21q44 0 91.5 74t76 164t28.5 145q0 64 -51 64q-22 0 -44.5 -12 t-49 -40.5t-35 -38.5t-33.5 -42l-17 18q26 34 44 55t46 46t59 37.5t66 12.5q47 0 78.5 -29.5t32.5 -77.5h2q62 107 134 107q38 0 64 -23.5t26 -61.5q0 -28 -15 -47t-40 -19q-19 0 -30 11.5t-11 29.5q0 12 9 30.5t9 28.5q0 11 -7 18.5t-19 7.5q-45 0 -93 -82.5t-75.5 -174 t-27.5 -136.5q0 -20 13 -37t39 -17q47 0 92 41.5t76 94.5z" />
<glyph unicode="y" horiz-adv-x="519" d="M30 286l-21 5q59 211 156 211q20 0 35 -7t25 -24t16 -28.5t10.5 -39.5t5.5 -36.5t4 -38.5l18 -169h2l92 197q13 30 26.5 57t26.5 46.5t31 31t40 11.5q26 0 41.5 -14t15.5 -39q0 -57 -62 -57q-6 0 -18.5 1t-18.5 1q-20 0 -34.5 -12.5t-22 -29.5t-16.5 -34l-145 -309 q-97 -207 -222 -207q-41 0 -65 23.5t-24 60.5q0 28 15.5 46t46.5 18q18 0 29.5 -12t11.5 -31q0 -10 -4.5 -24.5t-4.5 -20.5q0 -12 8.5 -20.5t22.5 -8.5q44 0 101 83q26 38 37.5 68t11.5 72q0 45 -9 99l-29 201q-6 46 -15 66t-28 20t-39.5 -33t-31.5 -67.5t-19 -55.5z" />
<glyph unicode="z" horiz-adv-x="500" d="M57 316l87 174h376l-371 -341q44 -4 86 -25t62.5 -38t59.5 -52q16 -15 35 -15q13 0 23 7t10 18t-14.5 30t-14.5 38t11.5 33.5t31.5 14.5q47 0 47 -57q0 -34 -15.5 -58.5t-38.5 -36t-42 -16t-34 -4.5q-46 0 -100.5 20.5t-98.5 41.5t-66 21q-18 0 -35.5 -10t-52.5 -42 l-15 18l403 369h-261l-50 -96z" />
<glyph unicode="{" horiz-adv-x="333" d="M414 715l-7 -25q-39 0 -61 -24.5t-41 -93.5l-45 -160q-17 -61 -42 -92t-78 -45v-2q57 -16 57 -62q0 -18 -9 -51l-50 -187q-13 -45 -13 -75q0 -22 12 -30.5t36 -8.5l-7 -25h-34q-97 0 -97 57q0 20 16 84l46 178q10 40 10 71q0 34 -40 50q41 15 61.5 42t36.5 81l48 169 q25 90 70.5 119.5t130.5 29.5z" />
<glyph unicode="|" horiz-adv-x="222" d="M108 -214v1000h66v-1000h-66z" />
<glyph unicode="}" horiz-adv-x="333" d="M-67 -166l7 25q39 0 61 24.5t41 93.5l45 160q17 61 42 92t78 45v2q-57 16 -57 62q0 18 9 51l50 187q13 46 13 75q0 22 -12 30.5t-36 8.5l7 25h34q97 0 97 -57q0 -20 -16 -84l-46 -178q-10 -40 -10 -71q0 -34 40 -50q-41 -15 -61.5 -42t-36.5 -81l-48 -169 q-25 -90 -70.5 -119.5t-130.5 -29.5z" />
<glyph unicode="~" horiz-adv-x="600" d="M495 320l36 -49q-20 -27 -33 -42t-38 -29.5t-54 -14.5q-42 0 -102 33q-59 33 -115 33q-52 0 -84 -69l-36 49q45 86 125 86q39 0 111 -32q79 -34 102 -34q19 0 36 11.5t27 23.5t25 34z" />
<glyph unicode="&#xa1;" horiz-adv-x="296" d="M150 322h23l-79 -387q-18 -95 -73 -95q-53 0 -53 58q0 30 37 110zM265 439q0 -26 -18.5 -44.5t-44.5 -18.5t-44.5 18.5t-18.5 44.5t18.5 44.5t44.5 18.5t44.5 -18.5t18.5 -44.5z" />
<glyph unicode="&#xa2;" horiz-adv-x="556" d="M214 28l127 449q-70 -19 -122.5 -148.5t-52.5 -205.5q0 -75 48 -95zM181 -90l23 81q-64 10 -102 55.5t-38 117.5t38.5 148.5t105.5 130.5t140 59l19 66h39l-19 -67q46 -7 79.5 -41t33.5 -81q0 -65 -55 -65q-24 0 -35.5 13.5t-11.5 34.5q0 7 6 33.5t6 39.5q0 35 -31 41 l-128 -457q117 0 190 141l21 -12q-33 -68 -91 -113.5t-129 -46.5l-22 -78h-39z" />
<glyph unicode="&#xa3;" horiz-adv-x="556" d="M25 353l9 31h138q8 48 22.5 92t38.5 87t55 74t75.5 50t96.5 19q61 0 112 -33.5t51 -92.5q0 -31 -16 -50t-45 -19q-27 0 -41.5 13.5t-14.5 32.5q0 9 4.5 28.5t4.5 30.5q0 59 -71 59q-26 0 -47.5 -11t-36.5 -33t-26 -44.5t-18.5 -54.5t-11.5 -54t-8.5 -53t-6.5 -41h202 l-9 -31h-195q-32 -173 -119 -266q75 -15 156 -15q78 0 127.5 33t73.5 124h27q-55 -241 -194 -241q-67 0 -221 70q-55 -43 -80.5 -56.5t-49.5 -13.5q-29 0 -44 18t-15 42q0 30 18.5 48t48.5 18q26 0 109 -20q17 35 24.5 73.5t12.5 101t8 84.5h-144z" />
<glyph unicode="&#xa4;" horiz-adv-x="556" d="M91 96l-44 44l57 57q-54 55 -54 150t54 150l-57 57l44 44l56 -56q63 52 151 52t151 -52l56 56l44 -44l-57 -57q54 -55 54 -150t-54 -150l57 -57l-44 -44l-56 56q-63 -52 -151 -52t-151 52zM116 347q0 -77 53.5 -132t128.5 -55t128.5 55t53.5 132t-53.5 132t-128.5 55 t-128.5 -55t-53.5 -132z" />
<glyph unicode="&#xa5;" horiz-adv-x="556" d="M161 25l45 152h-150l10 31h149l27 93h-153l10 31h152l12 40l-107 297h-84l4 25h297l-6 -25h-101l97 -283l261 283h-91l6 25h184l-6 -25h-55l-309 -329l-4 -8h151l-10 -31h-149l-28 -93h157l-10 -31h-155l-44 -152h116l-5 -25h-328l6 25h111z" />
<glyph unicode="&#xa6;" horiz-adv-x="222" d="M108 -89v250h66v-250h-66zM108 411v250h66v-250h-66z" />
<glyph unicode="&#xa7;" horiz-adv-x="556" d="M31 17q58 0 58 -58q0 -22 -21 -42t-21 -39q0 -36 36 -54.5t78 -18.5q57 0 103.5 38t46.5 92q0 36 -22.5 77.5t-55 82.5t-65 86t-55 105t-22.5 124q0 75 33 147t96 121t139 49q65 0 119 -40.5t54 -103.5q0 -29 -18.5 -47t-47.5 -18q-22 0 -38 13.5t-16 34.5q0 25 17 45.5 t17 33.5q0 20 -18.5 33.5t-39.5 18.5t-39 5q-51 0 -89.5 -33t-38.5 -84q0 -33 22.5 -76t54.5 -87.5t64 -92t54.5 -104t22.5 -109.5q0 -135 -82.5 -235.5t-200.5 -100.5q-82 0 -134.5 48.5t-52.5 115.5q0 29 17.5 51t44.5 22zM133 448q0 -53 34.5 -117t75.5 -113t75.5 -106 t34.5 -97q0 -52 -15 -107l2 -2q57 77 57 160q0 53 -22 103.5t-53 92t-62 82.5t-53 90.5t-22 100.5q0 42 14 85l-2 2q-27 -33 -45.5 -82.5t-18.5 -91.5z" />
<glyph unicode="&#xa8;" horiz-adv-x="278" d="M264 652q0 22 16 38t38 16t38 -16t16 -38t-16 -38t-38 -16t-38 16t-16 38zM62 652q0 22 16 38t38 16t38 -16t16 -38t-16 -38t-38 -16t-38 16t-16 38z" />
<glyph unicode="&#xa9;" horiz-adv-x="833" d="M570 276v-128h-9q-11 13 -26 13q-8 0 -44 -11t-67 -11q-81 0 -141 59q-69 69 -69 163q0 92 61.5 158.5t152.5 66.5q28 0 58.5 -11.5t39.5 -11.5q15 0 27 12h9v-120h-7q-13 57 -42 90t-91 33q-36 0 -63 -14.5t-41 -35.5t-22.5 -52.5t-10.5 -57t-2 -57.5q0 -119 36 -166 t103 -47q38 0 64 10t41 32.5t21.5 38.5t14.5 47h7zM45 358q0 154 109 263t263 109t263 -109t109 -263t-109 -263t-263 -109t-263 109t-109 263zM65 358q0 -146 103.5 -249t248.5 -103t248.5 103t103.5 249t-103.5 249t-248.5 103t-248.5 -103t-103.5 -249z" />
<glyph unicode="&#xaa;" horiz-adv-x="397" d="M366 650l15 50h57l-57 -187q-14 -50 -14 -59q0 -14 11 -14q25 0 66 69l13 -9q-20 -37 -51 -69.5t-64 -32.5q-19 0 -30 10.5t-11 28.5q0 6 7 41h-2q-24 -38 -52 -59t-73 -21q-39 0 -62 26t-23 66q0 71 66.5 143.5t142.5 72.5q56 0 59 -56h2zM162 476q0 -53 42 -53 q39 0 74.5 41.5t54.5 91.5t19 86q0 45 -45 45q-51 0 -98 -79t-47 -132z" />
<glyph unicode="&#xab;" horiz-adv-x="407" d="M328 64h-30q-48 105 -114 185q102 64 207 159l20 -20q-13 -18 -125 -154q19 -59 42 -170zM159 64h-30q-48 105 -114 185q102 64 207 159l20 -20q-13 -18 -125 -154q19 -59 42 -170z" />
<glyph unicode="&#xac;" horiz-adv-x="600" d="M485 106v212h-436v66h502v-278h-66z" />
<glyph unicode="&#xae;" horiz-adv-x="490" d="M59 544q0 77 54.5 131.5t131.5 54.5t131.5 -55t54.5 -131q0 -77 -54.5 -131.5t-131.5 -54.5t-131.5 54.5t-54.5 131.5zM193 452v188h-31v4h52q4 0 13 0.5t14 0.5q36 0 51 -12q18 -14 18 -35q0 -7 -3 -14.5t-14.5 -17t-30.5 -11.5v-1q44 -8 51 -32q2 -8 3.5 -27.5 t2.5 -25.5q4 -19 16 -19q9 0 15 6l2 -3q-9 -7 -24 -7q-21 0 -29 10t-10 32l-2 26q-3 37 -39 37h-28v-99h31v-4h-89v4h31zM220 640v-85h25q34 0 34 43q0 26 -11 34.5t-30 8.5q-14 0 -18 -1zM69 544q0 -73 51.5 -124.5t124.5 -51.5t124.5 51.5t51.5 124.5t-51.5 124.5 t-124.5 51.5t-124.5 -51.5t-51.5 -124.5z" />
<glyph unicode="&#xaf;" horiz-adv-x="278" d="M349 620h-269l14 60h268z" />
<glyph unicode="&#xb0;" horiz-adv-x="400" d="M117 563q0 60 41.5 101.5t101.5 41.5t101.5 -41.5t41.5 -101.5t-41.5 -101.5t-101.5 -41.5t-101.5 41.5t-41.5 101.5zM165 563q0 -39 28 -67t67 -28t67 28t28 67t-28 67t-67 28t-67 -28t-28 -67z" />
<glyph unicode="&#xb1;" horiz-adv-x="600" d="M267 334v168h66v-168h218v-66h-218v-169h-66v169h-218v66h218zM49 0v66h502v-66h-502z" />
<glyph unicode="&#xb2;" horiz-adv-x="361" d="M111 342h184l24 66l18 -4l-45 -122h-274l184 175q26 25 42 42.5t31 46t15 54.5t-15.5 45t-44.5 19q-43 0 -71.5 -33t-42.5 -81l-15 3q11 55 54 104t99 49q52 0 83 -28t31 -72q0 -49 -35 -86.5t-108 -88t-114 -89.5z" />
<glyph unicode="&#xb3;" horiz-adv-x="361" d="M160 521l-5 21q17 5 36.5 13t37 17t29 23.5t11.5 32.5t-13.5 27t-32.5 9q-12 0 -24 -4.5t-21 -10.5t-20 -13l-11 13q61 57 115 57q31 0 58 -17t27 -46q0 -35 -32 -57.5t-72 -33.5v-2q32 -10 52.5 -31.5t20.5 -52.5q0 -55 -51 -101t-114 -67.5t-114 -21.5v19 q72 5 136.5 55.5t64.5 110.5q0 22 -13.5 42t-38.5 20q-12 0 -26 -2z" />
<glyph unicode="&#xb4;" horiz-adv-x="278" d="M184 582h-38l148 152q20 21 39 21q16 0 27.5 -11.5t11.5 -27.5t-16 -26z" />
<glyph unicode="&#xb6;" horiz-adv-x="574" d="M427 712h253l-5 -14h-78l-197 -551q-33 -93 -72 -155t-112 -110q-101 -66 -203 -66q-55 0 -80.5 28t-25.5 58q0 23 17 39t47 16q44 0 44 -30q0 -12 -15 -36q-13 -21 -13 -29q3 -19 23 -19t51 18.5t58 55.5q42 58 103 230l45 124q-74 9 -116 38q-41 28 -62 74.5t-21 95.5 q0 28 7 54.5t23.5 56.5t50.5 56t83 42q73 24 195 24zM329 147l198 551h-92l-197 -551q-60 -166 -106 -235.5t-124 -81.5q43 1 81.5 14t66 30.5t53.5 47t42 53.5t33 60.5t25 57.5t20 54z" />
<glyph unicode="&#xb7;" horiz-adv-x="278" d="M84 297q0 26 18.5 44.5t44.5 18.5t44.5 -18.5t18.5 -44.5t-18.5 -44.5t-44.5 -18.5t-44.5 18.5t-18.5 44.5z" />
<glyph unicode="&#xb8;" horiz-adv-x="278" d="M-20 -195l18 29q31 -18 63 -18q25 0 42.5 12.5t17.5 33.5t-15.5 30t-34.5 9q-18 0 -32 -7l-10 10l67 99h37l-45 -70q13 4 30 4q35 0 58 -19.5t23 -53.5q0 -43 -40.5 -63.5t-87.5 -20.5q-51 0 -91 25z" />
<glyph unicode="&#xb9;" horiz-adv-x="361" d="M136 552l-6 17q115 67 189 137h18l-130 -405h69l-5 -19h-202l5 19h62l102 313z" />
<glyph unicode="&#xba;" horiz-adv-x="373" d="M96 516q0 77 58 133.5t132 56.5q53 0 90.5 -33t37.5 -85q0 -77 -58 -133.5t-132 -56.5q-53 0 -90.5 33t-37.5 85zM162 468q2 -51 61 -51q32 0 58.5 28t40 66.5t20 72t6.5 52.5q-2 51 -61 51q-32 0 -58.5 -28t-40 -66.5t-20 -72t-6.5 -52.5z" />
<glyph unicode="&#xbb;" horiz-adv-x="407" d="M79 408h30q48 -105 114 -185q-102 -64 -207 -159l-20 20q13 18 125 154q-19 59 -42 170zM248 408h30q48 -105 114 -185q-102 -64 -207 -159l-20 20q13 18 125 154q-19 59 -42 170z" />
<glyph unicode="&#xbc;" horiz-adv-x="834" d="M660 0h-68l43 131h-169v18l296 275h34l-87 -268h66v-25h-75zM704 346l-202 -190h142l61 188zM166 -21l445 736h48l-445 -736h-48zM126 552l-6 17q115 67 189 137h18l-130 -405h69l-5 -19h-202l5 19h62l102 313z" />
<glyph unicode="&#xbd;" horiz-adv-x="834" d="M176 -21l445 736h48l-445 -736h-48zM136 552l-6 17q115 67 189 137h18l-130 -405h69l-5 -19h-202l5 19h62l102 313zM554 60h184l24 66l18 -4l-45 -122h-274l184 175q26 25 42 42.5t31 46t15 54.5t-15.5 45t-44.5 19q-43 0 -71.5 -33t-42.5 -81l-15 3q11 55 54 104t99 49 q52 0 83 -28t31 -72q0 -49 -35 -86.5t-108 -88t-114 -89.5z" />
<glyph unicode="&#xbe;" horiz-adv-x="834" d="M704 346l-202 -190h142l61 188zM660 0h-68l43 131h-169v18l296 275h34l-87 -268h66v-25h-75zM166 -21l445 736h48l-445 -736h-48zM154 521l-5 21q17 5 36.5 13t37 17t29 23.5t11.5 32.5t-13.5 27t-32.5 9q-12 0 -24 -4.5t-21 -10.5t-20 -13l-11 13q61 57 115 57 q31 0 58 -17t27 -46q0 -35 -32 -57.5t-72 -33.5v-2q32 -10 52.5 -31.5t20.5 -52.5q0 -55 -51 -101t-114 -67.5t-114 -21.5v19q72 5 136.5 55.5t64.5 110.5q0 22 -13.5 42t-38.5 20q-12 0 -26 -2z" />
<glyph unicode="&#xbf;" horiz-adv-x="444" d="M298 322h24q-11 -63 -36.5 -89t-87.5 -50t-89 -88.5t-27 -133.5q0 -44 18 -76t56 -32q55 0 55 42q0 8 -5 30.5t-5 31.5q0 23 16.5 35t38.5 12q29 0 44 -18t15 -43q0 -56 -47 -85.5t-105 -29.5q-82 0 -132.5 55t-50.5 134q0 77 46 135.5t131 67.5q18 2 34.5 4t30 5t25.5 9 t21.5 16.5t17 27t12.5 40.5zM407 439q0 -26 -18.5 -44.5t-44.5 -18.5t-44.5 18.5t-18.5 44.5t18.5 44.5t44.5 18.5t44.5 -18.5t18.5 -44.5z" />
<glyph unicode="&#xc0;" d="M447 727h25l4 -702h100l-7 -25h-310l7 25h100v243h-208l-166 -243h106l-7 -25h-205l7 25h64zM175 293h191v277h-2zM527 762h-37l-145 108q-14 10 -14 31q0 15 10 24.5t27 9.5q24 0 38 -19z" />
<glyph unicode="&#xc1;" d="M447 727h25l4 -702h100l-7 -25h-310l7 25h100v243h-208l-166 -243h106l-7 -25h-205l7 25h64zM175 293h191v277h-2zM446 762h-38l148 152q20 21 39 21q16 0 27.5 -11.5t11.5 -27.5t-16 -26z" />
<glyph unicode="&#xc2;" d="M447 727h25l4 -702h100l-7 -25h-310l7 25h100v243h-208l-166 -243h106l-7 -25h-205l7 25h64zM175 293h191v277h-2zM533 935l84 -173h-39l-86 102l-134 -102h-43l160 173h58z" />
<glyph unicode="&#xc3;" d="M447 727h25l4 -702h100l-7 -25h-310l7 25h100v243h-208l-166 -243h106l-7 -25h-205l7 25h64zM175 293h191v277h-2zM615 891h32q-10 -43 -40 -75.5t-71 -32.5q-25 0 -71 22t-72 22q-38 0 -53 -44h-32q8 42 39.5 73t73.5 31q21 0 71 -21q52 -21 75 -21q14 0 28 15t20 31z " />
<glyph unicode="&#xc4;" d="M447 727h25l4 -702h100l-7 -25h-310l7 25h100v243h-208l-166 -243h106l-7 -25h-205l7 25h64zM175 293h191v277h-2zM506 828q0 22 16 38t38 16t38 -16t16 -38t-16 -38t-38 -16t-38 16t-16 38zM304 828q0 22 16 38t38 16t38 -16t16 -38t-16 -38t-38 -16t-38 16t-16 38z" />
<glyph unicode="&#xc5;" d="M447 727h25l4 -702h100l-7 -25h-310l7 25h100v243h-208l-166 -243h106l-7 -25h-205l7 25h64zM175 293h191v277h-2zM467 748q-42 0 -72 30t-30 72q0 41 30 71.5t72 30.5q41 0 71.5 -30.5t30.5 -71.5q0 -42 -30.5 -72t-71.5 -30zM467 790q25 0 42.5 18t17.5 42t-18 42 t-42 18q-25 0 -42.5 -18t-17.5 -42q0 -25 17.5 -42.5t42.5 -17.5z" />
<glyph unicode="&#xc6;" horiz-adv-x="1056" d="M492 690l8 25h550l-38 -211h-22q4 19 4 42q0 78 -37.5 111t-119.5 33h-118l-83 -284h63q40 0 67 8t46 30t30 44t27 64h26l-101 -351h-24q18 73 18 104q0 76 -93 76h-67l-102 -356h191q192 0 263 201h26l-69 -226h-624l6 25h96l74 257h-235l-229 -257h97l-5 -25h-203l8 25 h67l595 665h-92zM496 307l100 354h-2l-316 -354h218z" />
<glyph unicode="&#xc7;" horiz-adv-x="722" d="M623 228l-66 -206q-96 -27 -193 -34l-36 -55q13 4 30 4q35 0 58 -19.5t23 -53.5q0 -43 -40.5 -63.5t-87.5 -20.5q-51 0 -91 25l18 29q31 -18 63 -18q25 0 42.5 12.5t17.5 33.5t-15.5 30t-34.5 9q-18 0 -32 -7l-10 10l57 84q-61 2 -111 26.5t-81 62.5t-48 83.5t-17 93.5 q0 69 29.5 149.5t82 153.5t137 121.5t181.5 48.5q107 0 230 -64l-52 -202l-23 5q11 51 11 85q0 65 -40 108t-112 43q-68 0 -126.5 -46.5t-95.5 -114t-64 -143t-38.5 -132t-11.5 -84.5q0 -84 42.5 -126.5t116.5 -42.5q89 0 157 65.5t103 154.5z" />
<glyph unicode="&#xc8;" horiz-adv-x="704" d="M689 715l-38 -211h-22q4 19 4 42q0 78 -37.5 111t-119.5 33h-118l-83 -284h63q40 0 67 8t46 30t30 44t27 64h26l-101 -351h-24q18 73 18 104q0 76 -93 76h-67l-102 -356h191q192 0 263 201h26l-69 -226h-620l7 25h90l192 665h-102l7 25h539zM545 762h-37l-145 108 q-14 10 -14 31q0 15 10 24.5t27 9.5q24 0 38 -19z" />
<glyph unicode="&#xc9;" horiz-adv-x="704" d="M689 715l-38 -211h-22q4 19 4 42q0 78 -37.5 111t-119.5 33h-118l-83 -284h63q40 0 67 8t46 30t30 44t27 64h26l-101 -351h-24q18 73 18 104q0 76 -93 76h-67l-102 -356h191q192 0 263 201h26l-69 -226h-620l7 25h90l192 665h-102l7 25h539zM444 762h-38l148 152 q20 21 39 21q16 0 27.5 -11.5t11.5 -27.5t-16 -26z" />
<glyph unicode="&#xca;" horiz-adv-x="704" d="M689 715l-38 -211h-22q4 19 4 42q0 78 -37.5 111t-119.5 33h-118l-83 -284h63q40 0 67 8t46 30t30 44t27 64h26l-101 -351h-24q18 73 18 104q0 76 -93 76h-67l-102 -356h191q192 0 263 201h26l-69 -226h-620l7 25h90l192 665h-102l7 25h539zM531 935l84 -173h-39l-86 102 l-134 -102h-43l160 173h58z" />
<glyph unicode="&#xcb;" horiz-adv-x="704" d="M689 715l-38 -211h-22q4 19 4 42q0 78 -37.5 111t-119.5 33h-118l-83 -284h63q40 0 67 8t46 30t30 44t27 64h26l-101 -351h-24q18 73 18 104q0 76 -93 76h-67l-102 -356h191q192 0 263 201h26l-69 -226h-620l7 25h90l192 665h-102l7 25h539zM524 828q0 22 16 38t38 16 t38 -16t16 -38t-16 -38t-38 -16t-38 16t-16 38zM322 828q0 22 16 38t38 16t38 -16t16 -38t-16 -38t-38 -16t-38 16t-16 38z" />
<glyph unicode="&#xcc;" horiz-adv-x="352" d="M143 690l7 25h305l-7 -25h-90l-193 -665h96l-7 -25h-298l7 25h89l192 665h-101zM389 762h-37l-145 108q-14 10 -14 31q0 15 10 24.5t27 9.5q24 0 38 -19z" />
<glyph unicode="&#xcd;" horiz-adv-x="352" d="M143 690l7 25h305l-7 -25h-90l-193 -665h96l-7 -25h-298l7 25h89l192 665h-101zM288 762h-38l148 152q20 21 39 21q16 0 27.5 -11.5t11.5 -27.5t-16 -26z" />
<glyph unicode="&#xce;" horiz-adv-x="352" d="M143 690l7 25h305l-7 -25h-90l-193 -665h96l-7 -25h-298l7 25h89l192 665h-101zM375 935l84 -173h-39l-86 102l-134 -102h-43l160 173h58z" />
<glyph unicode="&#xcf;" horiz-adv-x="352" d="M143 690l7 25h305l-7 -25h-90l-193 -665h96l-7 -25h-298l7 25h89l192 665h-101zM368 828q0 22 16 38t38 16t38 -16t16 -38t-16 -38t-38 -16t-38 16t-16 38zM166 828q0 22 16 38t38 16t38 -16t16 -38t-16 -38t-38 -16t-38 16t-16 38z" />
<glyph unicode="&#xd0;" horiz-adv-x="796" d="M60 25l101 351h-91l13 42h90l79 272h-101l7 25h320q28 0 44 -0.5t45 -2.5t47 -6.5t43 -13t41 -21t34 -31.5t28 -43.5t17 -58.5t7 -75q0 -123 -52.5 -228t-153 -170t-228.5 -65h-386l7 25h89zM275 376l-102 -351h132q64 0 118 21t90 54t64.5 78t44 89t25.5 91.5t13.5 81.5 t3.5 62q0 58 -14.5 97t-43 58t-59.5 26t-74 7h-106l-80 -272h160l-13 -42h-159z" />
<glyph unicode="&#xd1;" horiz-adv-x="759" d="M627 690l7 25h225l-7 -25h-86l-205 -696h-24l-264 673h-2l-182 -642h101l-7 -25h-227l6 25h91l192 665h-102l7 25h218l215 -548h2l149 523h-107zM687 891h32q-10 -43 -40 -75.5t-71 -32.5q-25 0 -71 22t-72 22q-38 0 -53 -44h-32q8 42 39.5 73t73.5 31q21 0 71 -21 q52 -21 75 -21q14 0 28 15t20 31z" />
<glyph unicode="&#xd2;" horiz-adv-x="759" d="M69 238q0 111 57.5 224t158.5 189t212 76q63 0 112.5 -23t78.5 -60t44 -80t15 -87q0 -111 -57.5 -224t-158.5 -189t-212 -76q-63 0 -112.5 23t-78.5 60t-44 80t-15 87zM177 160q0 -74 43 -110.5t106 -36.5q60 0 113 45t88.5 111t61.5 143t38 140.5t12 102.5 q0 74 -43 110.5t-106 36.5q-60 0 -113 -45t-88.5 -111t-61.5 -143t-38 -140.5t-12 -102.5zM573 762h-37l-145 108q-14 10 -14 31q0 15 10 24.5t27 9.5q24 0 38 -19z" />
<glyph unicode="&#xd3;" horiz-adv-x="759" d="M69 238q0 111 57.5 224t158.5 189t212 76q63 0 112.5 -23t78.5 -60t44 -80t15 -87q0 -111 -57.5 -224t-158.5 -189t-212 -76q-63 0 -112.5 23t-78.5 60t-44 80t-15 87zM177 160q0 -74 43 -110.5t106 -36.5q60 0 113 45t88.5 111t61.5 143t38 140.5t12 102.5 q0 74 -43 110.5t-106 36.5q-60 0 -113 -45t-88.5 -111t-61.5 -143t-38 -140.5t-12 -102.5zM472 762h-38l148 152q20 21 39 21q16 0 27.5 -11.5t11.5 -27.5t-16 -26z" />
<glyph unicode="&#xd4;" horiz-adv-x="759" d="M69 238q0 111 57.5 224t158.5 189t212 76q63 0 112.5 -23t78.5 -60t44 -80t15 -87q0 -111 -57.5 -224t-158.5 -189t-212 -76q-63 0 -112.5 23t-78.5 60t-44 80t-15 87zM177 160q0 -74 43 -110.5t106 -36.5q60 0 113 45t88.5 111t61.5 143t38 140.5t12 102.5 q0 74 -43 110.5t-106 36.5q-60 0 -113 -45t-88.5 -111t-61.5 -143t-38 -140.5t-12 -102.5zM559 935l84 -173h-39l-86 102l-134 -102h-43l160 173h58z" />
<glyph unicode="&#xd5;" horiz-adv-x="759" d="M69 238q0 111 57.5 224t158.5 189t212 76q63 0 112.5 -23t78.5 -60t44 -80t15 -87q0 -111 -57.5 -224t-158.5 -189t-212 -76q-63 0 -112.5 23t-78.5 60t-44 80t-15 87zM177 160q0 -74 43 -110.5t106 -36.5q60 0 113 45t88.5 111t61.5 143t38 140.5t12 102.5 q0 74 -43 110.5t-106 36.5q-60 0 -113 -45t-88.5 -111t-61.5 -143t-38 -140.5t-12 -102.5zM661 891h32q-10 -43 -40 -75.5t-71 -32.5q-25 0 -71 22t-72 22q-38 0 -53 -44h-32q8 42 39.5 73t73.5 31q21 0 71 -21q52 -21 75 -21q14 0 28 15t20 31z" />
<glyph unicode="&#xd6;" horiz-adv-x="759" d="M69 238q0 111 57.5 224t158.5 189t212 76q63 0 112.5 -23t78.5 -60t44 -80t15 -87q0 -111 -57.5 -224t-158.5 -189t-212 -76q-63 0 -112.5 23t-78.5 60t-44 80t-15 87zM177 160q0 -74 43 -110.5t106 -36.5q60 0 113 45t88.5 111t61.5 143t38 140.5t12 102.5 q0 74 -43 110.5t-106 36.5q-60 0 -113 -45t-88.5 -111t-61.5 -143t-38 -140.5t-12 -102.5zM552 828q0 22 16 38t38 16t38 -16t16 -38t-16 -38t-38 -16t-38 16t-16 38zM350 828q0 22 16 38t38 16t38 -16t16 -38t-16 -38t-38 -16t-38 16t-16 38z" />
<glyph unicode="&#xd7;" horiz-adv-x="600" d="M254 251l-182 182l46 46l182 -183l182 183l46 -46l-183 -182l183 -182l-46 -46l-182 183l-182 -183l-46 46z" />
<glyph unicode="&#xd8;" horiz-adv-x="759" d="M45 15l71 74q-47 66 -47 149q0 111 57.5 224t158.5 189t212 76q101 0 168 -59l69 73l25 -26l-70 -73q58 -70 58 -165q0 -111 -57.5 -224t-158.5 -189t-212 -76q-115 0 -182 74l-68 -72zM177 154l448 472q-37 76 -135 76q-60 0 -113 -45t-88.5 -111.5t-61.5 -144t-38 -142 t-12 -105.5zM636 586l-452 -475q14 -49 52.5 -73.5t89.5 -24.5q60 0 113 45t88.5 111t61.5 143t38 140.5t12 102.5q0 16 -3 31z" />
<glyph unicode="&#xd9;" horiz-adv-x="778" d="M142 690l7 25h314l-7 -25h-95l-134 -455q-23 -78 -23 -117q0 -99 165 -99q110 0 162 45.5t90 178.5l128 447h-104l6 25h222l-7 -25h-85l-143 -485q-38 -129 -100.5 -173t-199.5 -44q-28 0 -45.5 1t-50.5 4t-54.5 12t-44.5 23t-35 38.5t-12 56.5q0 24 13 74l137 493h-104z M609 762h-37l-145 108q-14 10 -14 31q0 15 10 24.5t27 9.5q24 0 38 -19z" />
<glyph unicode="&#xda;" horiz-adv-x="778" d="M142 690l7 25h314l-7 -25h-95l-134 -455q-23 -78 -23 -117q0 -99 165 -99q110 0 162 45.5t90 178.5l128 447h-104l6 25h222l-7 -25h-85l-143 -485q-38 -129 -100.5 -173t-199.5 -44q-28 0 -45.5 1t-50.5 4t-54.5 12t-44.5 23t-35 38.5t-12 56.5q0 24 13 74l137 493h-104z M508 762h-38l148 152q20 21 39 21q16 0 27.5 -11.5t11.5 -27.5t-16 -26z" />
<glyph unicode="&#xdb;" horiz-adv-x="778" d="M142 690l7 25h314l-7 -25h-95l-134 -455q-23 -78 -23 -117q0 -99 165 -99q110 0 162 45.5t90 178.5l128 447h-104l6 25h222l-7 -25h-85l-143 -485q-38 -129 -100.5 -173t-199.5 -44q-28 0 -45.5 1t-50.5 4t-54.5 12t-44.5 23t-35 38.5t-12 56.5q0 24 13 74l137 493h-104z M595 935l84 -173h-39l-86 102l-134 -102h-43l160 173h58z" />
<glyph unicode="&#xdc;" horiz-adv-x="778" d="M142 690l7 25h314l-7 -25h-95l-134 -455q-23 -78 -23 -117q0 -99 165 -99q110 0 162 45.5t90 178.5l128 447h-104l6 25h222l-7 -25h-85l-143 -485q-38 -129 -100.5 -173t-199.5 -44q-28 0 -45.5 1t-50.5 4t-54.5 12t-44.5 23t-35 38.5t-12 56.5q0 24 13 74l137 493h-104z M588 828q0 22 16 38t38 16t38 -16t16 -38t-16 -38t-38 -16t-38 16t-16 38zM386 828q0 22 16 38t38 16t38 -16t16 -38t-16 -38t-38 -16t-38 16t-16 38z" />
<glyph unicode="&#xdd;" d="M74 0l6 25h104l103 358l-104 307h-81l4 25h297l-6 -25h-98l97 -292l258 292h-91l6 25h184l-6 -25h-55l-303 -340l-93 -325h111l-5 -25h-328zM405 762h-38l148 152q20 21 39 21q16 0 27.5 -11.5t11.5 -27.5t-16 -26z" />
<glyph unicode="&#xde;" horiz-adv-x="630" d="M319 546l-107 -364h80q50 0 89.5 20t60.5 49t35 65.5t18 63.5t4 50q0 73 -31 94.5t-105 21.5h-44zM143 690l7 25h302l-8 -25h-86l-34 -119h112q30 0 54 -3.5t49 -13.5t42 -26.5t27.5 -45.5t10.5 -67q0 -28 -7.5 -58.5t-29.5 -67t-56 -65t-93 -48t-134 -19.5h-94l-40 -132 h106l-7 -25h-308l7 25h89l192 665h-101z" />
<glyph unicode="&#xdf;" horiz-adv-x="593" d="M243 206l21 -5q-8 -21 -19.5 -63t-11.5 -57q0 -62 53 -62q35 0 68.5 46t55 108t35 119.5t13.5 86.5q0 73 -86 73h-31l6 25h23q74 0 110.5 29.5t36.5 102.5q0 93 -94 93q-50 0 -95.5 -44t-71.5 -156l-73 -306q-40 -166 -118 -280t-172 -114q-43 0 -63 21.5t-20 56.5 q0 26 16 44t39 18q21 0 34 -11t13 -32q0 -14 -10.5 -30.5t-10.5 -23.5q0 -18 18 -18q22 0 42 14t35 34.5t30.5 58.5t26 70.5t23.5 86t20.5 89.5t19.5 97q19 94 44 167.5t65.5 141t101 104.5t138.5 37q62 0 107 -32t45 -89q0 -61 -36 -99t-96 -48v-2q33 -10 53 -43t20 -68 q0 -69 -30 -149t-90.5 -141.5t-132.5 -61.5q-41 0 -63.5 22.5t-22.5 63.5q0 21 34 126z" />
<glyph unicode="&#xe0;" d="M464 490h88l-86 -303q-25 -89 -25 -113q0 -20 17 -20q19 0 51.5 39t50.5 75l21 -15q-34 -63 -83 -114t-102 -51q-57 0 -57 61q0 31 12 67l-2 2q-77 -130 -193 -130q-51 0 -88.5 36.5t-37.5 115.5q0 80 48.5 165t124 141t146.5 56q42 0 64.5 -27.5t22.5 -71.5h2zM126 94 q0 -31 17 -50.5t47 -19.5q46 0 90.5 42t73.5 101t46.5 118t17.5 97q0 95 -68 95q-45 0 -89 -45.5t-72 -109.5t-45.5 -126.5t-17.5 -101.5zM452 582h-37l-145 108q-14 10 -14 31q0 15 10 24.5t27 9.5q24 0 38 -19z" />
<glyph unicode="&#xe1;" d="M464 490h88l-86 -303q-25 -89 -25 -113q0 -20 17 -20q19 0 51.5 39t50.5 75l21 -15q-34 -63 -83 -114t-102 -51q-57 0 -57 61q0 31 12 67l-2 2q-77 -130 -193 -130q-51 0 -88.5 36.5t-37.5 115.5q0 80 48.5 165t124 141t146.5 56q42 0 64.5 -27.5t22.5 -71.5h2zM126 94 q0 -31 17 -50.5t47 -19.5q46 0 90.5 42t73.5 101t46.5 118t17.5 97q0 95 -68 95q-45 0 -89 -45.5t-72 -109.5t-45.5 -126.5t-17.5 -101.5zM351 582h-38l148 152q20 21 39 21q16 0 27.5 -11.5t11.5 -27.5t-16 -26z" />
<glyph unicode="&#xe2;" d="M464 490h88l-86 -303q-25 -89 -25 -113q0 -20 17 -20q19 0 51.5 39t50.5 75l21 -15q-34 -63 -83 -114t-102 -51q-57 0 -57 61q0 31 12 67l-2 2q-77 -130 -193 -130q-51 0 -88.5 36.5t-37.5 115.5q0 80 48.5 165t124 141t146.5 56q42 0 64.5 -27.5t22.5 -71.5h2zM126 94 q0 -31 17 -50.5t47 -19.5q46 0 90.5 42t73.5 101t46.5 118t17.5 97q0 95 -68 95q-45 0 -89 -45.5t-72 -109.5t-45.5 -126.5t-17.5 -101.5zM438 755l84 -173h-39l-86 102l-134 -102h-43l160 173h58z" />
<glyph unicode="&#xe3;" d="M464 490h88l-86 -303q-25 -89 -25 -113q0 -20 17 -20q19 0 51.5 39t50.5 75l21 -15q-34 -63 -83 -114t-102 -51q-57 0 -57 61q0 31 12 67l-2 2q-77 -130 -193 -130q-51 0 -88.5 36.5t-37.5 115.5q0 80 48.5 165t124 141t146.5 56q42 0 64.5 -27.5t22.5 -71.5h2zM126 94 q0 -31 17 -50.5t47 -19.5q46 0 90.5 42t73.5 101t46.5 118t17.5 97q0 95 -68 95q-45 0 -89 -45.5t-72 -109.5t-45.5 -126.5t-17.5 -101.5zM540 715h32q-10 -43 -40 -75.5t-71 -32.5q-25 0 -71 22t-72 22q-38 0 -53 -44h-32q8 42 39.5 73t73.5 31q21 0 71 -21q52 -21 75 -21 q14 0 28 15t20 31z" />
<glyph unicode="&#xe4;" d="M464 490h88l-86 -303q-25 -89 -25 -113q0 -20 17 -20q19 0 51.5 39t50.5 75l21 -15q-34 -63 -83 -114t-102 -51q-57 0 -57 61q0 31 12 67l-2 2q-77 -130 -193 -130q-51 0 -88.5 36.5t-37.5 115.5q0 80 48.5 165t124 141t146.5 56q42 0 64.5 -27.5t22.5 -71.5h2zM126 94 q0 -31 17 -50.5t47 -19.5q46 0 90.5 42t73.5 101t46.5 118t17.5 97q0 95 -68 95q-45 0 -89 -45.5t-72 -109.5t-45.5 -126.5t-17.5 -101.5zM431 652q0 22 16 38t38 16t38 -16t16 -38t-16 -38t-38 -16t-38 16t-16 38zM229 652q0 22 16 38t38 16t38 -16t16 -38t-16 -38t-38 -16 t-38 16t-16 38z" />
<glyph unicode="&#xe5;" d="M464 490h88l-86 -303q-25 -89 -25 -113q0 -20 17 -20q19 0 51.5 39t50.5 75l21 -15q-34 -63 -83 -114t-102 -51q-57 0 -57 61q0 31 12 67l-2 2q-77 -130 -193 -130q-51 0 -88.5 36.5t-37.5 115.5q0 80 48.5 165t124 141t146.5 56q42 0 64.5 -27.5t22.5 -71.5h2zM126 94 q0 -31 17 -50.5t47 -19.5q46 0 90.5 42t73.5 101t46.5 118t17.5 97q0 95 -68 95q-45 0 -89 -45.5t-72 -109.5t-45.5 -126.5t-17.5 -101.5zM444 565q-42 0 -72 30t-30 72q0 41 30 71.5t72 30.5q41 0 71.5 -30.5t30.5 -71.5q0 -42 -30.5 -72t-71.5 -30zM444 607q25 0 42.5 18 t17.5 42t-18 42t-42 18q-25 0 -42.5 -18t-17.5 -42q0 -25 17.5 -42.5t42.5 -17.5z" />
<glyph unicode="&#xe6;" horiz-adv-x="778" d="M682 425q0 23 -12.5 37.5t-35.5 14.5q-42 0 -92 -74t-69 -150q209 65 209 172zM455 490h89l-20 -73l2 -2q53 87 133 87q38 0 69.5 -21.5t31.5 -62.5q0 -105 -297 -196q-15 -58 -15 -105q0 -93 84 -93q101 0 186 150l23 -7q-37 -75 -97 -127t-141 -52q-143 0 -145 159h-2 q-32 -69 -88 -114t-118 -45q-47 0 -83.5 37t-36.5 115q0 80 48.5 165t122 141t142.5 56q40 0 62 -27.5t22 -71.5h2zM126 94q0 -30 16 -50t43 -20q59 0 113 70.5t82.5 153t28.5 134.5q0 95 -65 95q-43 0 -85.5 -46t-70.5 -109.5t-45 -126.5t-17 -101z" />
<glyph unicode="&#xe7;" horiz-adv-x="463" d="M415 160l21 -12q-30 -61 -80 -104.5t-111 -53.5l-37 -57q13 4 30 4q35 0 58 -19.5t23 -53.5q0 -43 -40.5 -63.5t-87.5 -20.5q-51 0 -91 25l18 29q31 -18 63 -18q25 0 42.5 12.5t17.5 33.5t-15.5 30t-34.5 9q-18 0 -32 -7l-10 10l58 84q-76 2 -122.5 48.5t-46.5 127.5 q0 55 24.5 115t64.5 109.5t96 81.5t113 32q54 0 96 -34.5t42 -88.5q0 -65 -55 -65q-24 0 -35.5 13.5t-11.5 34.5q0 7 6 33.5t6 39.5q0 42 -52 42q-40 0 -77.5 -44t-61.5 -104t-38.5 -117t-14.5 -89q0 -52 23 -78t74 -26q54 0 103 43t75 98z" />
<glyph unicode="&#xe8;" horiz-adv-x="463" d="M397 174l23 -7q-37 -76 -97.5 -127.5t-143.5 -51.5q-141 0 -141 159q0 85 41 167.5t110 135t143 52.5q44 0 75.5 -21t31.5 -63q0 -21 -13 -42t-30 -37t-47.5 -33.5t-51.5 -27.5t-57.5 -24t-49 -18t-41.5 -14q-15 -58 -15 -105q0 -93 80 -93q98 0 183 150zM361 425 q0 23 -12.5 37.5t-34.5 14.5q-47 0 -82 -56t-73 -168q202 69 202 172zM378 582h-37l-145 108q-14 10 -14 31q0 15 10 24.5t27 9.5q24 0 38 -19z" />
<glyph unicode="&#xe9;" horiz-adv-x="463" d="M397 174l23 -7q-37 -76 -97.5 -127.5t-143.5 -51.5q-141 0 -141 159q0 85 41 167.5t110 135t143 52.5q44 0 75.5 -21t31.5 -63q0 -21 -13 -42t-30 -37t-47.5 -33.5t-51.5 -27.5t-57.5 -24t-49 -18t-41.5 -14q-15 -58 -15 -105q0 -93 80 -93q98 0 183 150zM361 425 q0 23 -12.5 37.5t-34.5 14.5q-47 0 -82 -56t-73 -168q202 69 202 172zM277 582h-38l148 152q20 21 39 21q16 0 27.5 -11.5t11.5 -27.5t-16 -26z" />
<glyph unicode="&#xea;" horiz-adv-x="463" d="M397 174l23 -7q-37 -76 -97.5 -127.5t-143.5 -51.5q-141 0 -141 159q0 85 41 167.5t110 135t143 52.5q44 0 75.5 -21t31.5 -63q0 -21 -13 -42t-30 -37t-47.5 -33.5t-51.5 -27.5t-57.5 -24t-49 -18t-41.5 -14q-15 -58 -15 -105q0 -93 80 -93q98 0 183 150zM361 425 q0 23 -12.5 37.5t-34.5 14.5q-47 0 -82 -56t-73 -168q202 69 202 172zM364 755l84 -173h-39l-86 102l-134 -102h-43l160 173h58z" />
<glyph unicode="&#xeb;" horiz-adv-x="463" d="M397 174l23 -7q-37 -76 -97.5 -127.5t-143.5 -51.5q-141 0 -141 159q0 85 41 167.5t110 135t143 52.5q44 0 75.5 -21t31.5 -63q0 -21 -13 -42t-30 -37t-47.5 -33.5t-51.5 -27.5t-57.5 -24t-49 -18t-41.5 -14q-15 -58 -15 -105q0 -93 80 -93q98 0 183 150zM361 425 q0 23 -12.5 37.5t-34.5 14.5q-47 0 -82 -56t-73 -168q202 69 202 172zM357 652q0 22 16 38t38 16t38 -16t16 -38t-16 -38t-38 -16t-38 16t-16 38zM155 652q0 22 16 38t38 16t38 -16t16 -38t-16 -38t-38 -16t-38 16t-16 38z" />
<glyph unicode="&#xec;" horiz-adv-x="315" d="M155 465h-89l5 25h75q56 0 112 6l-109 -392q-9 -32 -9 -42q0 -20 22 -20q35 0 118 120l20 -14q-15 -23 -37 -51t-43.5 -52t-51 -40.5t-58.5 -16.5t-47.5 17.5t-18.5 42.5q0 20 24 108zM304 582h-37l-145 108q-14 10 -14 31q0 15 10 24.5t27 9.5q24 0 38 -19z" />
<glyph unicode="&#xed;" horiz-adv-x="315" d="M155 465h-89l5 25h75q56 0 112 6l-109 -392q-9 -32 -9 -42q0 -20 22 -20q35 0 118 120l20 -14q-15 -23 -37 -51t-43.5 -52t-51 -40.5t-58.5 -16.5t-47.5 17.5t-18.5 42.5q0 20 24 108zM203 582h-38l148 152q20 21 39 21q16 0 27.5 -11.5t11.5 -27.5t-16 -26z" />
<glyph unicode="&#xee;" horiz-adv-x="315" d="M155 465h-89l5 25h75q56 0 112 6l-109 -392q-9 -32 -9 -42q0 -20 22 -20q35 0 118 120l20 -14q-15 -23 -37 -51t-43.5 -52t-51 -40.5t-58.5 -16.5t-47.5 17.5t-18.5 42.5q0 20 24 108zM290 755l84 -173h-39l-86 102l-134 -102h-43l160 173h58z" />
<glyph unicode="&#xef;" horiz-adv-x="315" d="M155 465h-89l5 25h75q56 0 112 6l-109 -392q-9 -32 -9 -42q0 -20 22 -20q35 0 118 120l20 -14q-15 -23 -37 -51t-43.5 -52t-51 -40.5t-58.5 -16.5t-47.5 17.5t-18.5 42.5q0 20 24 108zM283 652q0 22 16 38t38 16t38 -16t16 -38t-16 -38t-38 -16t-38 16t-16 38zM81 652 q0 22 16 38t38 16t38 -16t16 -38t-16 -38t-38 -16t-38 16t-16 38z" />
<glyph unicode="&#xf0;" horiz-adv-x="574" d="M170 610l129 52q-48 38 -125 73l24 26q95 -40 153 -78l137 55l24 -34l-126 -51q83 -72 111.5 -142.5t28.5 -180.5q0 -139 -80 -240.5t-207 -101.5q-87 0 -136 58t-49 145q0 124 80.5 217.5t200.5 93.5q44 0 78 -19q0 27 -23.5 70t-58.5 78l-137 -55zM430 383q0 94 -91 94 q-52 0 -88 -33q-33 -30 -70 -153t-37 -184q0 -94 91 -94q52 0 88 33q33 30 70 153t37 184z" />
<glyph unicode="&#xf1;" d="M31 0l130 465h-89l5 25h75q56 0 112 6l-38 -122h2q31 48 87.5 88t111.5 40q42 0 72.5 -22.5t30.5 -62.5q0 -16 -8 -43l-72 -234q-18 -60 -18 -81q0 -23 22 -23q32 0 65.5 51.5t46.5 94.5l25 -5q-70 -189 -187 -189q-29 0 -48.5 19t-19.5 46q0 28 14 71l78 249 q12 40 12 58q0 35 -43 35q-57 0 -123.5 -72.5t-87.5 -155.5l-61 -238h-94zM520 715h32q-10 -43 -40 -75.5t-71 -32.5q-25 0 -71 22t-72 22q-38 0 -53 -44h-32q8 42 39.5 73t73.5 31q21 0 71 -21q52 -21 75 -21q14 0 28 15t20 31z" />
<glyph unicode="&#xf2;" horiz-adv-x="574" d="M520 299q0 -124 -80 -217.5t-201 -93.5q-87 0 -136 58t-49 145q0 124 80.5 217.5t200.5 93.5q87 0 136 -58t49 -145zM430 383q0 94 -91 94q-52 0 -88 -33q-33 -30 -70 -153t-37 -184q0 -94 91 -94q52 0 88 33q33 30 70 153t37 184zM433 582h-37l-145 108q-14 10 -14 31 q0 15 10 24.5t27 9.5q24 0 38 -19z" />
<glyph unicode="&#xf3;" horiz-adv-x="574" d="M520 299q0 -124 -80 -217.5t-201 -93.5q-87 0 -136 58t-49 145q0 124 80.5 217.5t200.5 93.5q87 0 136 -58t49 -145zM430 383q0 94 -91 94q-52 0 -88 -33q-33 -30 -70 -153t-37 -184q0 -94 91 -94q52 0 88 33q33 30 70 153t37 184zM332 582h-38l148 152q20 21 39 21 q16 0 27.5 -11.5t11.5 -27.5t-16 -26z" />
<glyph unicode="&#xf4;" horiz-adv-x="574" d="M520 299q0 -124 -80 -217.5t-201 -93.5q-87 0 -136 58t-49 145q0 124 80.5 217.5t200.5 93.5q87 0 136 -58t49 -145zM430 383q0 94 -91 94q-52 0 -88 -33q-33 -30 -70 -153t-37 -184q0 -94 91 -94q52 0 88 33q33 30 70 153t37 184zM419 755l84 -173h-39l-86 102 l-134 -102h-43l160 173h58z" />
<glyph unicode="&#xf5;" horiz-adv-x="574" d="M520 299q0 -124 -80 -217.5t-201 -93.5q-87 0 -136 58t-49 145q0 124 80.5 217.5t200.5 93.5q87 0 136 -58t49 -145zM430 383q0 94 -91 94q-52 0 -88 -33q-33 -30 -70 -153t-37 -184q0 -94 91 -94q52 0 88 33q33 30 70 153t37 184zM521 715h32q-10 -43 -40 -75.5 t-71 -32.5q-25 0 -71 22t-72 22q-38 0 -53 -44h-32q8 42 39.5 73t73.5 31q21 0 71 -21q52 -21 75 -21q14 0 28 15t20 31z" />
<glyph unicode="&#xf6;" horiz-adv-x="574" d="M520 299q0 -124 -80 -217.5t-201 -93.5q-87 0 -136 58t-49 145q0 124 80.5 217.5t200.5 93.5q87 0 136 -58t49 -145zM430 383q0 94 -91 94q-52 0 -88 -33q-33 -30 -70 -153t-37 -184q0 -94 91 -94q52 0 88 33q33 30 70 153t37 184zM412 652q0 22 16 38t38 16t38 -16 t16 -38t-16 -38t-38 -16t-38 16t-16 38zM210 652q0 22 16 38t38 16t38 -16t16 -38t-16 -38t-38 -16t-38 16t-16 38z" />
<glyph unicode="&#xf7;" horiz-adv-x="600" d="M551 218h-502v66h502v-66zM369 56q0 -28 -20.5 -48t-48.5 -20t-48.5 20t-20.5 48t20.5 49t48.5 21t48.5 -21t20.5 -49zM369 444q0 -28 -20.5 -48t-48.5 -20t-48.5 20t-20.5 48t20.5 49t48.5 21t48.5 -21t20.5 -49z" />
<glyph unicode="&#xf8;" horiz-adv-x="574" d="M144 117l283 300q-15 60 -88 60q-51 0 -88 -33q-32 -28 -68.5 -145t-38.5 -182zM39 4l54 57q-39 54 -39 130q0 124 80.5 217.5t200.5 93.5q78 0 126 -48l50 54l24 -21l-54 -57q39 -52 39 -131q0 -124 -80 -217.5t-201 -93.5q-79 0 -126 49l-51 -55zM430 375l-283 -301 q15 -61 88 -61q51 0 88 33q32 29 68.5 146.5t38.5 182.5z" />
<glyph unicode="&#xf9;" d="M556 490l-104 -366q-9 -32 -9 -51q0 -11 7 -18t17 -7q16 0 42 28t42.5 52.5t29.5 46.5l19 -14q-19 -34 -34.5 -57.5t-40.5 -53.5t-54.5 -46t-61.5 -16q-28 0 -45 15t-17 44q0 35 21 108l-2 2q-107 -169 -221 -169q-40 0 -63.5 22.5t-23.5 67.5q0 23 14 74l88 313h-91 l6 25h72q57 0 112 6l-92 -341q-13 -50 -13 -74q0 -45 36 -45q56 0 127.5 93.5t112.5 238.5l35 122h91zM452 582h-37l-145 108q-14 10 -14 31q0 15 10 24.5t27 9.5q24 0 38 -19z" />
<glyph unicode="&#xfa;" d="M556 490l-104 -366q-9 -32 -9 -51q0 -11 7 -18t17 -7q16 0 42 28t42.5 52.5t29.5 46.5l19 -14q-19 -34 -34.5 -57.5t-40.5 -53.5t-54.5 -46t-61.5 -16q-28 0 -45 15t-17 44q0 35 21 108l-2 2q-107 -169 -221 -169q-40 0 -63.5 22.5t-23.5 67.5q0 23 14 74l88 313h-91 l6 25h72q57 0 112 6l-92 -341q-13 -50 -13 -74q0 -45 36 -45q56 0 127.5 93.5t112.5 238.5l35 122h91zM351 582h-38l148 152q20 21 39 21q16 0 27.5 -11.5t11.5 -27.5t-16 -26z" />
<glyph unicode="&#xfb;" d="M556 490l-104 -366q-9 -32 -9 -51q0 -11 7 -18t17 -7q16 0 42 28t42.5 52.5t29.5 46.5l19 -14q-19 -34 -34.5 -57.5t-40.5 -53.5t-54.5 -46t-61.5 -16q-28 0 -45 15t-17 44q0 35 21 108l-2 2q-107 -169 -221 -169q-40 0 -63.5 22.5t-23.5 67.5q0 23 14 74l88 313h-91 l6 25h72q57 0 112 6l-92 -341q-13 -50 -13 -74q0 -45 36 -45q56 0 127.5 93.5t112.5 238.5l35 122h91zM438 755l84 -173h-39l-86 102l-134 -102h-43l160 173h58z" />
<glyph unicode="&#xfc;" d="M556 490l-104 -366q-9 -32 -9 -51q0 -11 7 -18t17 -7q16 0 42 28t42.5 52.5t29.5 46.5l19 -14q-19 -34 -34.5 -57.5t-40.5 -53.5t-54.5 -46t-61.5 -16q-28 0 -45 15t-17 44q0 35 21 108l-2 2q-107 -169 -221 -169q-40 0 -63.5 22.5t-23.5 67.5q0 23 14 74l88 313h-91 l6 25h72q57 0 112 6l-92 -341q-13 -50 -13 -74q0 -45 36 -45q56 0 127.5 93.5t112.5 238.5l35 122h91zM431 652q0 22 16 38t38 16t38 -16t16 -38t-16 -38t-38 -16t-38 16t-16 38zM229 652q0 22 16 38t38 16t38 -16t16 -38t-16 -38t-38 -16t-38 16t-16 38z" />
<glyph unicode="&#xfd;" horiz-adv-x="519" d="M30 286l-21 5q59 211 156 211q20 0 35 -7t25 -24t16 -28.5t10.5 -39.5t5.5 -36.5t4 -38.5l18 -169h2l92 197q13 30 26.5 57t26.5 46.5t31 31t40 11.5q26 0 41.5 -14t15.5 -39q0 -57 -62 -57q-6 0 -18.5 1t-18.5 1q-20 0 -34.5 -12.5t-22 -29.5t-16.5 -34l-145 -309 q-97 -207 -222 -207q-41 0 -65 23.5t-24 60.5q0 28 15.5 46t46.5 18q18 0 29.5 -12t11.5 -31q0 -10 -4.5 -24.5t-4.5 -20.5q0 -12 8.5 -20.5t22.5 -8.5q44 0 101 83q26 38 37.5 68t11.5 72q0 45 -9 99l-29 201q-6 46 -15 66t-28 20t-39.5 -33t-31.5 -67.5t-19 -55.5z M305 582h-38l148 152q20 21 39 21q16 0 27.5 -11.5t11.5 -27.5t-16 -26z" />
<glyph unicode="&#xfe;" horiz-adv-x="593" d="M215 690h-96l8 25h80q57 0 112 6l-94 -325l2 -2q35 35 54 52t56 36.5t72 19.5q64 0 97 -46t33 -112q0 -81 -39 -164t-105 -137.5t-136 -54.5q-52 0 -79.5 25t-43.5 77h-2l-93 -310h-95zM437 360q0 100 -66 100q-71 0 -140.5 -107.5t-69.5 -227.5q0 -42 21.5 -71.5 t62.5 -29.5q52 0 98.5 66t70 143t23.5 127z" />
<glyph unicode="&#xff;" horiz-adv-x="519" d="M30 286l-21 5q59 211 156 211q20 0 35 -7t25 -24t16 -28.5t10.5 -39.5t5.5 -36.5t4 -38.5l18 -169h2l92 197q13 30 26.5 57t26.5 46.5t31 31t40 11.5q26 0 41.5 -14t15.5 -39q0 -57 -62 -57q-6 0 -18.5 1t-18.5 1q-20 0 -34.5 -12.5t-22 -29.5t-16.5 -34l-145 -309 q-97 -207 -222 -207q-41 0 -65 23.5t-24 60.5q0 28 15.5 46t46.5 18q18 0 29.5 -12t11.5 -31q0 -10 -4.5 -24.5t-4.5 -20.5q0 -12 8.5 -20.5t22.5 -8.5q44 0 101 83q26 38 37.5 68t11.5 72q0 45 -9 99l-29 201q-6 46 -15 66t-28 20t-39.5 -33t-31.5 -67.5t-19 -55.5z M385 652q0 22 16 38t38 16t38 -16t16 -38t-16 -38t-38 -16t-38 16t-16 38zM183 652q0 22 16 38t38 16t38 -16t16 -38t-16 -38t-38 -16t-38 16t-16 38z" />
<glyph unicode="&#x131;" horiz-adv-x="315" d="M155 465h-89l5 25h75q56 0 112 6l-109 -392q-9 -32 -9 -42q0 -20 22 -20q35 0 118 120l20 -14q-15 -23 -37 -51t-43.5 -52t-51 -40.5t-58.5 -16.5t-47.5 17.5t-18.5 42.5q0 20 24 108z" />
<glyph unicode="&#x141;" horiz-adv-x="667" d="M144 690l7 25h320l-7 -25h-106l-80 -275l273 162l-17 -59l-273 -162l-96 -331h129q124 0 195 47.5t109 148.5h27l-63 -221h-606l7 25h90l72 250l-119 -71l16 59l120 71l103 356h-101z" />
<glyph unicode="&#x142;" horiz-adv-x="315" d="M26 284l12 50l98 60l82 296h-93l5 25h69q61 0 122 6l-71 -256l102 63l-12 -52l-105 -64l-86 -308q-9 -32 -9 -42q0 -20 22 -20q37 0 109 128l21 -11q-87 -171 -182 -171q-29 0 -47.5 17.5t-18.5 42.5q0 18 16 77l61 217z" />
<glyph unicode="&#x152;" horiz-adv-x="1074" d="M1068 715l-38 -211h-22q4 19 4 42q0 78 -37.5 111t-119.5 33h-93l-83 -284h38q40 0 67 8t46 30t30 44t27 64h26l-101 -351h-24q18 73 18 104q0 76 -93 76h-42l-102 -356h166q192 0 263 201h26l-69 -226h-467q-37 0 -97 -6q-58 -6 -85 -6q-113 0 -175 73.5t-62 187.5 q0 63 22 130.5t62.5 129t92.5 111t118.5 78.5t134.5 29q24 0 120 -6q98 -6 155 -6h294zM520 231l83 300q13 45 13 87q0 84 -125 84q-61 0 -115.5 -45t-90.5 -112t-63 -144t-39 -141t-12 -103q0 -64 40 -104t105 -40q47 0 82.5 18t58.5 52t36.5 67.5t26.5 80.5z" />
<glyph unicode="&#x153;" horiz-adv-x="778" d="M725 174l23 -7q-37 -76 -97.5 -127.5t-143.5 -51.5q-34 0 -69 16.5t-48 41.5q-87 -58 -155 -58q-84 0 -132.5 58t-48.5 145q0 119 86.5 215t188.5 96q42 0 85 -26t67 -65q94 91 180 91q44 0 75 -21t31 -63q0 -21 -13 -42t-30 -37t-47.5 -33.5t-51.5 -27.5t-57.5 -24 t-49 -18t-41.5 -14q-15 -58 -15 -105q0 -93 80 -93q98 0 183 150zM414 383q0 94 -83 94q-44 0 -80 -33q-33 -30 -70 -153t-37 -184q0 -94 83 -94q44 0 80 33q33 30 70 153t37 184zM689 425q0 23 -12.5 37.5t-34.5 14.5q-47 0 -82 -56t-73 -168q202 69 202 172z" />
<glyph unicode="&#x160;" d="M25 69l52 197l25 -4q-7 -31 -7 -65q0 -94 54 -139t137 -45t136.5 45t53.5 102q0 43 -31.5 76t-76.5 57.5t-90 51t-76.5 69.5t-31.5 100q0 92 59 152.5t156 60.5q104 0 201 -59l-26 -168h-28q3 26 3 43q0 69 -44.5 114t-114.5 45q-60 0 -100 -36.5t-40 -87.5 q0 -41 31.5 -70t76.5 -50.5t90 -47t76.5 -72.5t31.5 -113q0 -109 -75.5 -173t-180.5 -64q-138 0 -261 81zM300 935h40l92 -104l137 104h43l-162 -173h-56z" />
<glyph unicode="&#x161;" horiz-adv-x="426" d="M97 361q0 61 46.5 101t107.5 40q45 0 85 -25.5t40 -65.5q0 -23 -12 -35t-30 -12q-27 0 -34.5 13.5t-7.5 36.5q0 63 -62 63q-27 0 -47 -18t-20 -45q0 -25 18 -48.5t44 -43.5t51.5 -42t43.5 -55t18 -72q0 -69 -47 -117t-121 -48q-59 0 -109.5 30t-50.5 82q0 21 11.5 35.5 t33.5 14.5q26 0 35.5 -13.5t9.5 -46.5q0 -77 74 -77q41 0 69.5 22t28.5 60q0 24 -18 48t-44 45.5t-51.5 45t-43.5 56.5t-18 71zM160 755h40l92 -104l137 104h43l-162 -173h-56z" />
<glyph unicode="&#x178;" d="M74 0l6 25h104l103 358l-104 307h-81l4 25h297l-6 -25h-98l97 -292l258 292h-91l6 25h184l-6 -25h-55l-303 -340l-93 -325h111l-5 -25h-328zM485 828q0 22 16 38t38 16t38 -16t16 -38t-16 -38t-38 -16t-38 16t-16 38zM283 828q0 22 16 38t38 16t38 -16t16 -38t-16 -38 t-38 -16t-38 16t-16 38z" />
<glyph unicode="&#x17d;" horiz-adv-x="704" d="M118 517l61 198h547l-607 -690h132q52 0 87 2t78.5 8t74.5 19t62.5 34.5t55.5 55t41 79.5h27l-69 -223h-648l606 690h-119q-55 0 -94 -5.5t-80.5 -22.5t-73 -53t-54.5 -92h-27zM353 935h40l92 -104l137 104h43l-162 -173h-56z" />
<glyph unicode="&#x17e;" horiz-adv-x="500" d="M57 316l87 174h376l-371 -341q44 -4 86 -25t62.5 -38t59.5 -52q16 -15 35 -15q13 0 23 7t10 18t-14.5 30t-14.5 38t11.5 33.5t31.5 14.5q47 0 47 -57q0 -34 -15.5 -58.5t-38.5 -36t-42 -16t-34 -4.5q-46 0 -100.5 20.5t-98.5 41.5t-66 21q-18 0 -35.5 -10t-52.5 -42 l-15 18l403 369h-261l-50 -96zM197 755h40l92 -104l137 104h43l-162 -173h-56z" />
<glyph unicode="&#x192;" horiz-adv-x="556" d="M448 349h-114l-42 -139q-17 -58 -29.5 -95.5t-33 -92.5t-41.5 -90.5t-48.5 -70.5t-60.5 -52t-71 -17q-42 0 -72 20.5t-30 61.5q0 61 52 61q18 0 31 -11t13 -31q0 -16 -11 -31.5t-11 -26.5q0 -7 9 -12.5t24 -5.5q26 0 42.5 16.5t48 95t79.5 241.5l53 179h-99l9 31h99 l14 47q14 48 32.5 90t47.5 88t70 73.5t88 27.5q39 0 69 -24.5t30 -63.5q0 -25 -13 -42t-37 -17q-20 0 -33 11t-13 32q0 18 10.5 34t10.5 26q0 19 -31 19q-38 0 -63 -51t-59 -168l-24 -82h112z" />
<glyph unicode="&#x2c6;" horiz-adv-x="278" d="M271 755l84 -173h-39l-86 102l-134 -102h-43l160 173h58z" />
<glyph unicode="&#x2c7;" horiz-adv-x="278" d="M86 755h40l92 -104l137 104h43l-162 -173h-56z" />
<glyph unicode="&#x2d8;" horiz-adv-x="278" d="M82 742h30q9 -94 109 -94q47 0 81 25t52 69h31q-11 -69 -56.5 -114.5t-112.5 -45.5q-134 0 -134 160z" />
<glyph unicode="&#x2d9;" horiz-adv-x="278" d="M162 652q0 22 16 38t38 16t38 -16t16 -38t-16 -38t-38 -16t-38 16t-16 38z" />
<glyph unicode="&#x2da;" horiz-adv-x="278" d="M253 565q-42 0 -72 30t-30 72q0 41 30 71.5t72 30.5q41 0 71.5 -30.5t30.5 -71.5q0 -42 -30.5 -72t-71.5 -30zM253 607q25 0 42.5 18t17.5 42t-18 42t-42 18q-25 0 -42.5 -18t-17.5 -42q0 -25 17.5 -42.5t42.5 -17.5z" />
<glyph unicode="&#x2db;" horiz-adv-x="278" d="M95 3h45q-38 -24 -72 -62t-34 -73q0 -21 16 -33.5t38 -12.5t62 12l9 -37q-58 -17 -105 -17q-40 0 -69 18.5t-29 55.5q0 46 43 85t96 64z" />
<glyph unicode="&#x2dc;" horiz-adv-x="278" d="M373 715h32q-10 -43 -40 -75.5t-71 -32.5q-25 0 -71 22t-72 22q-38 0 -53 -44h-32q8 42 39.5 73t73.5 31q21 0 71 -21q52 -21 75 -21q14 0 28 15t20 31z" />
<glyph unicode="&#x2dd;" horiz-adv-x="278" d="M96 582h-38l148 152q20 21 39 21q16 0 27.5 -11.5t11.5 -27.5t-16 -26zM272 582h-38l148 152q20 21 39 21q16 0 27.5 -11.5t11.5 -27.5t-16 -26z" />
<glyph unicode="&#x3bc;" d="M556 490l-104 -366q-9 -32 -9 -51q0 -11 7 -18t17 -7q16 0 42 28t42.5 52.5t29.5 46.5l19 -14q-19 -34 -34.5 -57.5t-40.5 -53.5t-54.5 -46t-61.5 -16q-28 0 -45 15t-17 44q0 35 21 108l-2 2q-107 -169 -221 -169q-40 0 -63.5 22.5t-23.5 67.5q0 23 14 74l88 313h-91 l6 25h72q57 0 112 6l-92 -341q-13 -50 -13 -74q0 -45 36 -45q56 0 127.5 93.5t112.5 238.5l35 122h91z" />
<glyph unicode="&#x2013;" horiz-adv-x="500" d="M-14 209l14 54h500l-14 -54h-500z" />
<glyph unicode="&#x2014;" horiz-adv-x="1000" d="M116 209l14 54h740l-14 -54h-740z" />
<glyph unicode="&#x2018;" horiz-adv-x="259" d="M295 727l8 -27q-53 -23 -90.5 -60t-37.5 -85q14 10 33 10q29 0 45 -16.5t16 -43.5t-19.5 -46.5t-46.5 -19.5q-39 0 -60.5 26.5t-21.5 65.5q0 65 51.5 115t122.5 81z" />
<glyph unicode="&#x2019;" horiz-adv-x="259" d="M129 439l-8 27q53 23 90.5 60t37.5 85q-14 -10 -33 -10q-29 0 -45 16.5t-16 43.5t19.5 46.5t46.5 19.5q39 0 60.5 -26.5t21.5 -65.5q0 -65 -51.5 -115t-122.5 -81z" />
<glyph unicode="&#x201a;" horiz-adv-x="259" d="M-19 -168l-8 27q53 23 90.5 60t37.5 85q-14 -10 -33 -10q-29 0 -45 16.5t-16 43.5t19.5 46.5t46.5 19.5q39 0 60.5 -26.5t21.5 -65.5q0 -65 -51.5 -115t-122.5 -81z" />
<glyph unicode="&#x201c;" horiz-adv-x="444" d="M480 727l8 -27q-53 -23 -90.5 -60t-37.5 -85q14 10 33 10q29 0 45 -16.5t16 -43.5t-19.5 -46.5t-46.5 -19.5q-39 0 -60.5 26.5t-21.5 65.5q0 65 51.5 115t122.5 81zM295 727l8 -27q-53 -23 -90.5 -60t-37.5 -85q14 10 33 10q29 0 45 -16.5t16 -43.5t-19.5 -46.5 t-46.5 -19.5q-39 0 -60.5 26.5t-21.5 65.5q0 65 51.5 115t122.5 81z" />
<glyph unicode="&#x201d;" horiz-adv-x="444" d="M129 439l-8 27q53 23 90.5 60t37.5 85q-14 -10 -33 -10q-29 0 -45 16.5t-16 43.5t19.5 46.5t46.5 19.5q39 0 60.5 -26.5t21.5 -65.5q0 -65 -51.5 -115t-122.5 -81zM314 439l-8 27q53 23 90.5 60t37.5 85q-14 -10 -33 -10q-29 0 -45 16.5t-16 43.5t19.5 46.5t46.5 19.5 q39 0 60.5 -26.5t21.5 -65.5q0 -65 -51.5 -115t-122.5 -81z" />
<glyph unicode="&#x201e;" horiz-adv-x="444" d="M-19 -168l-8 27q53 23 90.5 60t37.5 85q-14 -10 -33 -10q-29 0 -45 16.5t-16 43.5t19.5 46.5t46.5 19.5q39 0 60.5 -26.5t21.5 -65.5q0 -65 -51.5 -115t-122.5 -81zM166 -168l-8 27q53 23 90.5 60t37.5 85q-14 -10 -33 -10q-29 0 -45 16.5t-16 43.5t19.5 46.5t46.5 19.5 q39 0 60.5 -26.5t21.5 -65.5q0 -65 -51.5 -115t-122.5 -81z" />
<glyph unicode="&#x2020;" horiz-adv-x="556" d="M146 -201h-25q75 264 78 484q26 19 61 70t49 83q-29 -2 -84 -22t-90 -20q-22 0 -37 15t-15 38q0 22 15 38.5t37 16.5q28 0 90 -20.5t91 -20.5v176q0 42 13.5 66t51.5 24q27 0 43 -14t16 -37q0 -26 -43.5 -103.5t-58.5 -111.5q27 1 79 21q54 20 75 20q28 0 46.5 -14 t18.5 -41q0 -25 -19 -39t-44 -14q-10 0 -75 21q-63 21 -88 21q-7 -50 -7 -81q0 -54 9 -105q-111 -183 -187 -451z" />
<glyph unicode="&#x2021;" horiz-adv-x="556" d="M212 65v-176q0 -42 -13.5 -66t-51.5 -24q-27 0 -43 14t-16 37q0 26 43.5 103.5t58.5 111.5q-26 -1 -78.5 -21t-75.5 -20q-28 0 -46.5 14t-18.5 41q0 25 19 39t44 14q10 0 75 -21q63 -21 88 -21q7 50 7 81q0 34 -5 112q26 19 61 70t49 83q-29 -2 -84 -22t-90 -20 q-22 0 -37 15t-15 38q0 22 15 38.5t37 16.5q28 0 90 -20.5t91 -20.5v176q0 42 13.5 66t51.5 24q27 0 43 -14t16 -37q0 -26 -43.5 -103.5t-58.5 -111.5q27 1 79 21q54 20 75 20q28 0 46.5 -14t18.5 -41q0 -25 -19 -39t-44 -14q-10 0 -75 21q-63 21 -88 21q-7 -50 -7 -81 q0 -34 5 -112q-26 -19 -61 -70t-49 -83q29 2 84 22t90 20q22 0 37 -15t15 -38q0 -22 -15 -38.5t-37 -16.5q-28 0 -90 20.5t-91 20.5z" />
<glyph unicode="&#x2022;" horiz-adv-x="500" d="M91 357q0 74 52.5 126.5t126.5 52.5t126.5 -52.5t52.5 -126.5t-52.5 -126t-126.5 -52t-126.5 52t-52.5 126z" />
<glyph unicode="&#x2026;" horiz-adv-x="1000" d="M82 57q0 26 18.5 44.5t44.5 18.5t44.5 -18.5t18.5 -44.5t-18.5 -44.5t-44.5 -18.5t-44.5 18.5t-18.5 44.5zM415 57q0 26 18.5 44.5t44.5 18.5t44.5 -18.5t18.5 -44.5t-18.5 -44.5t-44.5 -18.5t-44.5 18.5t-18.5 44.5zM748 57q0 26 18.5 44.5t44.5 18.5t44.5 -18.5 t18.5 -44.5t-18.5 -44.5t-44.5 -18.5t-44.5 18.5t-18.5 44.5z" />
<glyph unicode="&#x2030;" horiz-adv-x="1000" d="M72 526q0 69 48.5 124.5t117.5 55.5q58 0 89.5 -37t31.5 -93q0 -69 -48.5 -124.5t-117.5 -55.5q-58 0 -89.5 37t-31.5 93zM138 492q0 -71 57 -71q26 0 46.5 21.5t31 54t15.5 62t5 51.5q0 71 -57 71q-26 0 -46.5 -21.5t-31 -54t-15.5 -62t-5 -51.5zM345 118 q0 69 48.5 124.5t117.5 55.5q58 0 89.5 -37t31.5 -93q0 -69 -48.5 -124.5t-117.5 -55.5q-58 0 -89.5 37t-31.5 93zM411 84q0 -71 57 -71q26 0 46.5 21.5t31 54t15.5 62t5 51.5q0 71 -57 71q-26 0 -46.5 -21.5t-31 -54t-15.5 -62t-5 -51.5zM680 118q0 69 48.5 124.5 t117.5 55.5q58 0 89.5 -37t31.5 -93q0 -69 -48.5 -124.5t-117.5 -55.5q-58 0 -89.5 37t-31.5 93zM746 84q0 -71 57 -71q26 0 46.5 21.5t31 54t15.5 62t5 51.5q0 71 -57 71q-26 0 -46.5 -21.5t-31 -54t-15.5 -62t-5 -51.5zM105 -21l445 736h48l-445 -736h-48z" />
<glyph unicode="&#x2039;" horiz-adv-x="259" d="M167 64h-30q-48 105 -114 185q102 64 207 159l20 -20q-13 -18 -125 -154q19 -59 42 -170z" />
<glyph unicode="&#x203a;" horiz-adv-x="259" d="M92 408h30q48 -105 114 -185q-102 -64 -207 -159l-20 20q13 18 125 154q-19 59 -42 170z" />
<glyph unicode="&#x2044;" horiz-adv-x="167" d="M-163 -21l445 736h48l-445 -736h-48z" />
<glyph unicode="&#x2122;" horiz-adv-x="990" d="M167 366v330h-49q-53 0 -70 -69h-18v88h346v-88h-18q-17 69 -70 69h-49v-330q0 -28 50 -36v-19h-172v19q50 8 50 36zM666 311l-150 302h-2v-236q0 -21 10.5 -32t42.5 -15v-19h-129v19q31 4 41.5 15t10.5 31v269q-10 22 -29 36t-41 15v19h121l154 -309l162 309h103v-19 q-32 -2 -44 -15t-12 -40v-275q0 -28 50 -36v-19h-172v19q50 8 50 36v247h-3l-152 -302h-11z" />
<glyph unicode="&#x2212;" horiz-adv-x="600" d="M551 218h-502v66h502v-66z" />
<glyph unicode="&#x25fc;" horiz-adv-x="500" d="M0 500h500v-500h-500v500z" />
</font>
</defs>
</svg>
